<svg xmlns="http://www.w3.org/2000/svg" width="214" height="130" fill="none"><circle cx="2" cy="2" r="2" fill="#D9D9D9"></circle><circle cx="2" cy="58" r="2" fill="#D9D9D9"></circle><circle cx="114" cy="2" r="2" fill="#D9D9D9"></circle><circle cx="114" cy="58" r="2" fill="#D9D9D9"></circle><circle cx="2" cy="16" r="2" fill="#D9D9D9"></circle><circle cx="2" cy="72" r="2" fill="#D9D9D9"></circle><circle cx="114" cy="16" r="2" fill="#D9D9D9"></circle><circle cx="114" cy="72" r="2" fill="#D9D9D9"></circle><circle cx="58" cy="2" r="2" fill="#D9D9D9"></circle><circle cx="58" cy="58" r="2" fill="#D9D9D9"></circle><circle cx="170" cy="2" r="2" fill="#D9D9D9"></circle><circle cx="170" cy="58" r="2" fill="#D9D9D9"></circle><circle cx="58" cy="16" r="2" fill="#D9D9D9"></circle><circle cx="58" cy="72" r="2" fill="#D9D9D9"></circle><circle cx="170" cy="16" r="2" fill="#D9D9D9"></circle><circle cx="170" cy="72" r="2" fill="#D9D9D9"></circle><circle cx="16" cy="2" r="2" fill="#D9D9D9"></circle><circle cx="16" cy="58" r="2" fill="#D9D9D9"></circle><circle cx="128" cy="2" r="2" fill="#D9D9D9"></circle><circle cx="128" cy="58" r="2" fill="#D9D9D9"></circle><circle cx="16" cy="16" r="2" fill="#D9D9D9"></circle><circle cx="16" cy="72" r="2" fill="#D9D9D9"></circle><circle cx="128" cy="16" r="2" fill="#D9D9D9"></circle><circle cx="128" cy="72" r="2" fill="#D9D9D9"></circle><circle cx="72" cy="2" r="2" fill="#D9D9D9"></circle><circle cx="72" cy="58" r="2" fill="#D9D9D9"></circle><circle cx="184" cy="2" r="2" fill="#D9D9D9"></circle><circle cx="184" cy="58" r="2" fill="#D9D9D9"></circle><circle cx="72" cy="16" r="2" fill="#D9D9D9"></circle><circle cx="72" cy="72" r="2" fill="#D9D9D9"></circle><circle cx="184" cy="16" r="2" fill="#D9D9D9"></circle><circle cx="184" cy="72" r="2" fill="#D9D9D9"></circle><circle cx="30" cy="2" r="2" fill="#D9D9D9"></circle><circle cx="30" cy="58" r="2" fill="#D9D9D9"></circle><circle cx="142" cy="2" r="2" fill="#D9D9D9"></circle><circle cx="142" cy="58" r="2" fill="#D9D9D9"></circle><circle cx="30" cy="16" r="2" fill="#D9D9D9"></circle><circle cx="30" cy="72" r="2" fill="#D9D9D9"></circle><circle cx="142" cy="16" r="2" fill="#D9D9D9"></circle><circle cx="142" cy="72" r="2" fill="#D9D9D9"></circle><circle cx="86" cy="2" r="2" fill="#D9D9D9"></circle><circle cx="86" cy="58" r="2" fill="#D9D9D9"></circle><circle cx="198" cy="2" r="2" fill="#D9D9D9"></circle><circle cx="198" cy="58" r="2" fill="#D9D9D9"></circle><circle cx="86" cy="16" r="2" fill="#D9D9D9"></circle><circle cx="86" cy="72" r="2" fill="#D9D9D9"></circle><circle cx="198" cy="16" r="2" fill="#D9D9D9"></circle><circle cx="198" cy="72" r="2" fill="#D9D9D9"></circle><circle cx="44" cy="2" r="2" fill="#D9D9D9"></circle><circle cx="44" cy="58" r="2" fill="#D9D9D9"></circle><circle cx="156" cy="2" r="2" fill="#D9D9D9"></circle><circle cx="156" cy="58" r="2" fill="#D9D9D9"></circle><circle cx="44" cy="16" r="2" fill="#D9D9D9"></circle><circle cx="44" cy="72" r="2" fill="#D9D9D9"></circle><circle cx="156" cy="16" r="2" fill="#D9D9D9"></circle><circle cx="156" cy="72" r="2" fill="#D9D9D9"></circle><circle cx="100" cy="2" r="2" fill="#D9D9D9"></circle><circle cx="100" cy="58" r="2" fill="#D9D9D9"></circle><circle cx="212" cy="2" r="2" fill="#D9D9D9"></circle><circle cx="212" cy="58" r="2" fill="#D9D9D9"></circle><circle cx="100" cy="16" r="2" fill="#D9D9D9"></circle><circle cx="100" cy="72" r="2" fill="#D9D9D9"></circle><circle cx="212" cy="16" r="2" fill="#D9D9D9"></circle><circle cx="212" cy="72" r="2" fill="#D9D9D9"></circle><circle cx="2" cy="30" r="2" fill="#D9D9D9"></circle><circle cx="2" cy="86" r="2" fill="#D9D9D9"></circle><circle cx="2" cy="114" r="2" fill="#D9D9D9"></circle><circle cx="114" cy="86" r="2" fill="#D9D9D9"></circle><circle cx="114" cy="30" r="2" fill="#D9D9D9"></circle><circle cx="2" cy="100" r="2" fill="#D9D9D9"></circle><circle cx="114" cy="114" r="2" fill="#D9D9D9"></circle><circle cx="114" cy="100" r="2" fill="#D9D9D9"></circle><circle cx="2" cy="44" r="2" fill="#D9D9D9"></circle><circle cx="58" cy="86" r="2" fill="#D9D9D9"></circle><circle cx="2" cy="128" r="2" fill="#D9D9D9"></circle><circle cx="170" cy="86" r="2" fill="#D9D9D9"></circle><circle cx="114" cy="44" r="2" fill="#D9D9D9"></circle><circle cx="58" cy="100" r="2" fill="#D9D9D9"></circle><circle cx="114" cy="128" r="2" fill="#D9D9D9"></circle><circle cx="170" cy="100" r="2" fill="#D9D9D9"></circle><circle cx="58" cy="30" r="2" fill="#D9D9D9"></circle><circle cx="16" cy="86" r="2" fill="#D9D9D9"></circle><circle cx="58" cy="114" r="2" fill="#D9D9D9"></circle><circle cx="128" cy="86" r="2" fill="#D9D9D9"></circle><circle cx="170" cy="30" r="2" fill="#D9D9D9"></circle><circle cx="16" cy="100" r="2" fill="#D9D9D9"></circle><circle cx="170" cy="114" r="2" fill="#D9D9D9"></circle><circle cx="128" cy="100" r="2" fill="#D9D9D9"></circle><circle cx="58" cy="44" r="2" fill="#D9D9D9"></circle><circle cx="72" cy="86" r="2" fill="#D9D9D9"></circle><circle cx="58" cy="128" r="2" fill="#D9D9D9"></circle><circle cx="184" cy="86" r="2" fill="#D9D9D9"></circle><circle cx="170" cy="44" r="2" fill="#D9D9D9"></circle><circle cx="72" cy="100" r="2" fill="#D9D9D9"></circle><circle cx="170" cy="128" r="2" fill="#D9D9D9"></circle><circle cx="184" cy="100" r="2" fill="#D9D9D9"></circle><circle cx="16" cy="30" r="2" fill="#D9D9D9"></circle><circle cx="30" cy="86" r="2" fill="#D9D9D9"></circle><circle cx="16" cy="114" r="2" fill="#D9D9D9"></circle><circle cx="142" cy="86" r="2" fill="#D9D9D9"></circle><circle cx="128" cy="30" r="2" fill="#D9D9D9"></circle><circle cx="30" cy="100" r="2" fill="#D9D9D9"></circle><circle cx="128" cy="114" r="2" fill="#D9D9D9"></circle><circle cx="142" cy="100" r="2" fill="#D9D9D9"></circle><circle cx="16" cy="44" r="2" fill="#D9D9D9"></circle><circle cx="86" cy="86" r="2" fill="#D9D9D9"></circle><circle cx="16" cy="128" r="2" fill="#D9D9D9"></circle><circle cx="198" cy="86" r="2" fill="#D9D9D9"></circle><circle cx="128" cy="44" r="2" fill="#D9D9D9"></circle><circle cx="86" cy="100" r="2" fill="#D9D9D9"></circle><circle cx="128" cy="128" r="2" fill="#D9D9D9"></circle><circle cx="198" cy="100" r="2" fill="#D9D9D9"></circle><circle cx="72" cy="30" r="2" fill="#D9D9D9"></circle><circle cx="44" cy="86" r="2" fill="#D9D9D9"></circle><circle cx="72" cy="114" r="2" fill="#D9D9D9"></circle><circle cx="156" cy="86" r="2" fill="#D9D9D9"></circle><circle cx="184" cy="30" r="2" fill="#D9D9D9"></circle><circle cx="44" cy="100" r="2" fill="#D9D9D9"></circle><circle cx="184" cy="114" r="2" fill="#D9D9D9"></circle><circle cx="156" cy="100" r="2" fill="#D9D9D9"></circle><circle cx="72" cy="44" r="2" fill="#D9D9D9"></circle><circle cx="100" cy="86" r="2" fill="#D9D9D9"></circle><circle cx="72" cy="128" r="2" fill="#D9D9D9"></circle><circle cx="212" cy="86" r="2" fill="#D9D9D9"></circle><circle cx="184" cy="44" r="2" fill="#D9D9D9"></circle><circle cx="100" cy="100" r="2" fill="#D9D9D9"></circle><circle cx="184" cy="128" r="2" fill="#D9D9D9"></circle><circle cx="212" cy="100" r="2" fill="#D9D9D9"></circle><circle cx="30" cy="30" r="2" fill="#D9D9D9"></circle><circle cx="30" cy="114" r="2" fill="#D9D9D9"></circle><circle cx="142" cy="30" r="2" fill="#D9D9D9"></circle><circle cx="142" cy="114" r="2" fill="#D9D9D9"></circle><circle cx="30" cy="44" r="2" fill="#D9D9D9"></circle><circle cx="30" cy="128" r="2" fill="#D9D9D9"></circle><circle cx="142" cy="44" r="2" fill="#D9D9D9"></circle><circle cx="142" cy="128" r="2" fill="#D9D9D9"></circle><circle cx="86" cy="30" r="2" fill="#D9D9D9"></circle><circle cx="86" cy="114" r="2" fill="#D9D9D9"></circle><circle cx="198" cy="30" r="2" fill="#D9D9D9"></circle><circle cx="198" cy="114" r="2" fill="#D9D9D9"></circle><circle cx="86" cy="44" r="2" fill="#D9D9D9"></circle><circle cx="86" cy="128" r="2" fill="#D9D9D9"></circle><circle cx="198" cy="44" r="2" fill="#D9D9D9"></circle><circle cx="198" cy="128" r="2" fill="#D9D9D9"></circle><circle cx="44" cy="30" r="2" fill="#D9D9D9"></circle><circle cx="44" cy="114" r="2" fill="#D9D9D9"></circle><circle cx="156" cy="30" r="2" fill="#D9D9D9"></circle><circle cx="156" cy="114" r="2" fill="#D9D9D9"></circle><circle cx="44" cy="44" r="2" fill="#D9D9D9"></circle><circle cx="44" cy="128" r="2" fill="#D9D9D9"></circle><circle cx="156" cy="44" r="2" fill="#D9D9D9"></circle><circle cx="156" cy="128" r="2" fill="#D9D9D9"></circle><circle cx="100" cy="30" r="2" fill="#D9D9D9"></circle><circle cx="100" cy="114" r="2" fill="#D9D9D9"></circle><circle cx="212" cy="30" r="2" fill="#D9D9D9"></circle><circle cx="212" cy="114" r="2" fill="#D9D9D9"></circle><circle cx="100" cy="44" r="2" fill="#D9D9D9"></circle><circle cx="100" cy="128" r="2" fill="#D9D9D9"></circle><circle cx="212" cy="44" r="2" fill="#D9D9D9"></circle><circle cx="212" cy="128" r="2" fill="#D9D9D9"></circle></svg>