<svg xmlns="http://www.w3.org/2000/svg" width="789" height="470" viewBox="0 0 789 470" fill="none"><path d="M252.386 475.661C299.805 515.988 382.86 506.498 437.518 454.6C492.176 402.701 498.149 327.659 450.73 287.332C403.311 247.005 320.256 256.495 265.598 308.393C210.864 360.363 204.966 435.334 252.386 475.661ZM448.232 289.704C494.44 329.001 488.594 402.108 435.223 452.784C381.927 503.388 300.84 512.644 254.733 473.432C208.524 434.135 214.37 361.029 267.742 310.352C321.012 259.59 402.023 250.407 448.232 289.704Z" fill="url(#paint0_linear_282_4456)"></path><path d="M240.435 485.057C299.511 535.298 403.308 523.445 471.684 458.521C540.06 393.597 547.441 299.886 488.365 249.646C429.29 199.406 325.493 211.259 257.193 276.111C188.893 340.962 181.258 434.731 240.435 485.057ZM485.937 251.952C543.902 301.248 536.472 393.005 469.462 456.632C402.452 520.258 300.804 531.889 242.839 482.594C184.874 433.298 192.202 341.455 259.213 277.828C326.324 214.288 427.972 202.657 485.937 251.952Z" fill="url(#paint1_linear_282_4456)"></path><path d="M222.316 497.439C293.15 557.678 417.355 543.596 499.089 465.99C580.822 388.383 589.633 276.166 518.799 215.927C447.966 155.687 323.761 169.769 242.027 247.376C160.293 324.982 151.382 437.114 222.316 497.439ZM516.3 218.3C586.021 277.594 577.337 387.873 496.967 464.185C416.596 540.497 294.538 554.359 224.816 495.065C155.094 435.772 163.779 325.492 244.149 249.18C324.519 172.869 446.578 159.006 516.3 218.3Z" fill="url(#paint2_linear_282_4456)"></path><path d="M221.417 508.632C303.83 578.718 448.472 562.12 543.944 471.468C639.341 380.889 649.899 250.124 567.486 180.037C484.973 109.865 340.255 126.535 244.858 217.115C149.385 307.767 138.903 438.459 221.417 508.632ZM565.058 182.343C646.26 251.4 635.857 380.384 541.826 469.667C447.795 558.95 305.048 575.383 223.846 506.326C142.643 437.269 152.971 308.357 247.077 219.002C341.108 129.72 483.754 113.2 565.058 182.343Z" fill="url(#paint3_linear_282_4456)"></path><defs><linearGradient id="paint0_linear_282_4456" x1="516.795" y1="251.587" x2="276.03" y2="498.698" gradientUnits="userSpaceOnUse"><stop stop-color="#4834C4"></stop><stop offset="0.0001" stop-color="#EFECFF"></stop><stop offset="1" stop-color="#F5F3FF"></stop></linearGradient><linearGradient id="paint1_linear_282_4456" x1="570.911" y1="204.935" x2="269.914" y2="513.786" gradientUnits="userSpaceOnUse"><stop stop-color="#4834C4"></stop><stop offset="0.0001" stop-color="#EFECFF"></stop><stop offset="1" stop-color="#F5F3FF"></stop></linearGradient><linearGradient id="paint2_linear_282_4456" x1="617.559" y1="162.501" x2="257.674" y2="531.888" gradientUnits="userSpaceOnUse"><stop stop-color="#4834C4"></stop><stop offset="0.0001" stop-color="#EFECFF"></stop><stop offset="1" stop-color="#F5F3FF"></stop></linearGradient><linearGradient id="paint3_linear_282_4456" x1="682.629" y1="117.562" x2="262.456" y2="548.639" gradientUnits="userSpaceOnUse"><stop stop-color="#4834C4"></stop><stop offset="0.0001" stop-color="#EFECFF"></stop><stop offset="1" stop-color="#F5F3FF"></stop></linearGradient></defs></svg>