<?xml version="1.0" standalone="no"?>
<!DOCTYPE svg PUBLIC "-//W3C//DTD SVG 1.1//EN" "http://www.w3.org/Graphics/SVG/1.1/DTD/svg11.dtd">
<svg xmlns="http://www.w3.org/2000/svg">
<metadata>Copyright (C) 2024 by original authors @ fontello.com</metadata>
<defs>
<font id="rt-icons" horiz-adv-x="1000" >
<font-face font-family="rt-icons" font-weight="400" font-stretch="normal" units-per-em="1000" ascent="850" descent="-150" />
<missing-glyph horiz-adv-x="1000" />
<glyph glyph-name="linkedin-in" unicode="&#xe800;" d="M196-25h-181v584h181z m-91 664c-58 0-105 48-105 106a105 105 0 0 0 210 0c0-58-47-106-105-106z m770-664h-181v284c0 68-2 155-94 155-95 0-109-74-109-150v-289h-181v584h174v-79h2c24 45 83 94 172 94 183 0 217-121 217-278v-321z" horiz-adv-x="875" />

<glyph glyph-name="location-dot" unicode="&#xe801;" d="M531 475c0-86-70-156-156-156-86 0-156 70-156 156 0 86 70 156 156 156 86 0 156-70 156-156z m-156 63c-35 0-62-28-62-63 0-35 27-62 62-62 35 0 63 27 63 62 0 35-28 63-63 63z m375-63c0-171-228-475-329-600-24-30-68-30-92 0-102 125-329 429-329 600 0 207 168 375 375 375 207 0 375-168 375-375h0z m-375 281c-155 0-281-126-281-281 0-24 9-62 30-112 20-48 49-102 83-156 55-90 120-176 168-239 48 63 113 149 168 239 34 54 63 108 83 156 22 50 30 88 30 112 0 155-126 281-281 281v0z" horiz-adv-x="750" />

<glyph glyph-name="message" unicode="&#xe802;" d="M873 850h-750c-69 0-125-56-125-123v-561c0-69 56-123 125-123h188v-164c0-20 21-31 37-19l244 183h281c69 0 125 56 125 123v561c0 67-54 123-125 123z m65-687c0-35-29-63-63-63h-281c-14 0-27-4-38-12l-181-136v117c0 17-14 31-31 31h-219c-34 0-62 28-62 63v562c0 34 28 63 62 63h750c34 0 63-29 63-63v-562z" horiz-adv-x="1000" />

<glyph glyph-name="phone-flip" unicode="&#xe803;" d="M2 103l43-184c9-41 45-69 86-69 479 0 869 390 869 869 0 41-28 77-69 86l-184 43c-41 9-84-12-101-51l-85-199c-16-37-6-78 25-103l79-65c-56-103-142-189-245-245l-65 79c-24 30-66 41-103 27l-198-87c0 0 0 0 0 0-40-17-61-59-52-101z m61 14c-3 12 4 25 15 30l199 85c10 4 23 1 30-7l81-99c9-11 25-15 38-8 132 65 241 174 306 306 7 13 3 29-8 38l-99 81c-9 7-11 19-7 30l85 199c4 9 14 16 24 16 2 0 4-1 6-1l184-43c12-3 21-13 21-25 0-445-362-807-807-807-12 0-23 9-25 20l-43 185z" horiz-adv-x="1000" />

<glyph glyph-name="play" unicode="&#xe804;" d="M48 776c30 16 66 15 95-2l562-344c28-17 45-47 45-80 0-33-17-63-45-78l-562-344c-29-19-65-20-95-4-30 17-48 48-48 82v688c0 34 18 65 48 82v0z m62-56c-10 6-22 7-31 1-10-5-16-16-16-27v-688c0-11 6-21 16-25 9-8 21-7 31-2l563 344c9 6 15 16 15 27 0 11-6 21-15 27l-563 343z" horiz-adv-x="750" />

<glyph glyph-name="plus" unicode="&#xe805;" d="M844 350c0-17-14-31-31-31h-344v-344c0-17-14-31-31-31s-32 14-32 31v344h-343c-18 0-32 14-32 31 0 17 14 31 32 31h343v344c0 17 14 31 32 31s31-14 31-31v-344h344c17 0 31-14 31-31z" horiz-adv-x="875" />

<glyph glyph-name="quote-left" unicode="&#xe806;" d="M188 413c-22 0-43-5-63-12v12c0 68 56 125 125 125 35 0 63 28 63 62s-28 63-63 63c-138 0-250-113-250-250v-188c0-104 84-187 188-187s187 83 187 187-84 188-187 188z m500 0c-22 0-43-5-63-12v12c0 68 56 125 125 125 35 0 63 28 63 62s-28 63-63 63c-138 0-250-113-250-250v-188c0-104 84-187 188-187s187 83 187 187-84 188-187 188z" horiz-adv-x="875" />

<glyph glyph-name="twitter" unicode="&#xe807;" d="M897 554c1-9 1-18 1-27 0-271-206-583-583-583-116 0-224 33-315 92 17-2 32-3 50-3 95 0 184 33 254 88-90 2-166 61-192 142 13-2 26-3 39-3 18 0 37 2 54 7-94 19-164 101-164 201v3c27-16 59-25 92-26-55 36-91 99-91 170 0 38 10 73 28 104 101-125 252-206 422-215-3 15-5 31-5 47 0 113 92 205 205 205 59 0 113-25 150-65 46 9 91 26 130 50-15-48-47-88-90-113 41 4 81 16 118 32-28-41-63-77-103-106z" horiz-adv-x="1000" />

<glyph glyph-name="user" unicode="&#xe808;" d="M438 350c138 0 250 112 250 250s-112 250-250 250c-139 0-250-112-250-250s111-250 250-250z m0 438c103 0 187-85 187-188 0-103-84-187-187-187s-188 84-188 187c0 103 84 188 188 188z m99-532h-198c-187 0-339-151-339-338 0-38 30-68 68-68h739c38 0 68 30 68 68 0 187-152 338-338 338z m270-344h-739c-3 0-5 3-5 6 0 152 123 276 276 276h197c153 0 277-124 277-276 0-3-3-6-6-6z" horiz-adv-x="875" />

<glyph glyph-name="angle-down" unicode="&#xe809;" d="M708 452l-310-281c-12-11-30-11-42 0l-314 281c-13 13-14 31-3 44 13 13 32 13 45 2l291-262 292 262c13 12 32 11 44-2 11-13 10-31-3-44z" horiz-adv-x="750" />

<glyph glyph-name="angle-right" unicode="&#xe80a;" d="M430 329l-282-312c-11-13-31-14-44-3-13 13-13 32-2 45l262 291-262 292c-12 13-11 32 2 44 13 11 33 10 44-3l282-310c10-14 10-32 0-44z" horiz-adv-x="500" />

<glyph glyph-name="angles-up" unicode="&#xe80b;" d="M84 389l291 263 292-263c12-11 32-11 44 3 11 12 10 32-2 44l-311 281c-12 11-30 11-42 0l-314-281c-13-12-14-31-3-44 12-13 32-14 45-3z m312-47c-12 11-30 11-42 0l-312-281c-13-12-14-32-3-44 12-13 32-14 44-3l292 263 292-263c12-11 32-11 44 3 11 12 10 32-2 44l-313 281z" horiz-adv-x="750" />

<glyph glyph-name="arrow-left" unicode="&#xe80c;" d="M875 350c0-17-14-31-32-31h-737l275-292c12-13 11-32-3-44-6-5-14-8-22-8-8 0-17 3-23 10l-325 344c-11 12-11 30 0 42l325 344c12 13 32 13 45 2 14-12 15-31 2-44l-274-292h737c18 0 32-14 32-31z" horiz-adv-x="875" />

<glyph glyph-name="arrow-left-long" unicode="&#xe80d;" d="M290 47l-281 281c-6 6-9 14-9 22s3 16 9 22l281 281c13 13 32 13 45 0s12-32 0-44l-228-228h862c17 0 31-14 31-31s-14-31-31-31h-862l228-228c12-12 12-32 0-44s-32-13-45 0z" horiz-adv-x="1000" />

<glyph glyph-name="arrow-right" unicode="&#xe80e;" d="M867 329l-324-344c-7-7-17-10-24-10-8 0-16 3-22 8-13 12-14 32-2 44l274 292h-737c-17 0-32 14-32 29s15 33 32 33h737l-274 292c-12 13-11 32 2 44 13 12 33 11 46-2l324-344c11-12 11-30 0-42z" horiz-adv-x="875" />

<glyph glyph-name="arrow-right-long" unicode="&#xe80f;" d="M710 653l281-281c6-6 9-14 9-20s-3-16-9-22l-281-282c-13-12-32-12-45 0s-12 32 0 45l228 228h-862c-17 0-31 14-31 29 0 17 14 31 31 31h862l-228 228c-12 12-12 32 0 44s33 13 45 0z" horiz-adv-x="1000" />

<glyph glyph-name="book" unicode="&#xe810;" d="M875 131v625c0 52-42 94-94 94h-625c-86 0-156-70-156-156v-719c0-69 56-125 125-125h719c17 0 31 14 31 31s-14 31-31 31h-31v131c36 13 62 48 62 88z m-812 563c0 52 42 94 93 94h32v-688h-63c-23 0-44-7-62-17v611z m687-782h-625c-34 0-62 28-62 63s28 63 62 63h625v-126z m31 188h-531v688h531c17 0 32-14 32-32v-625c0-17-15-31-32-31z m-93 500h-313c-17 0-31-14-31-31s14-31 31-31h313c17 0 31 14 31 31s-14 31-31 31z m0-187h-313c-17 0-31-15-31-32s14-31 31-31h313c17 0 31 14 31 31s-14 32-31 32z" horiz-adv-x="875" />

<glyph glyph-name="calendar-days" unicode="&#xe811;" d="M219 850c17 0 31-14 31-31v-94h375v94c0 17 14 31 31 31 17 0 32-14 32-31v-94h62c69 0 125-56 125-125v-625c0-69-56-125-125-125h-625c-69 0-125 56-125 125v625c0 69 56 125 125 125h63v94c0 17 14 31 31 31z m594-375h-204v-141h204v141z m0-203h-204v-156h204v156z m0-219h-204v-141h141c35 0 63 28 63 63v78z m-266 63v156h-219v-156h219z m-219-204h219v141h-219v-141z m-62 204v156h-203v-156h203z m-203-63v-78c0-35 28-63 62-63h141v141h-203z m0 281h203v141h-203v-141z m265 0h219v141h-219v-141z m422 329h-625c-34 0-62-28-62-63v-62h750v62c0 35-28 63-63 63z" horiz-adv-x="875" />

<glyph glyph-name="check" unicode="&#xe812;" d="M866 653c12-12 12-32 0-44l-531-531c-12-12-32-12-45 0l-281 281c-12 12-12 32 0 44 12 13 32 13 44 0l260-259 509 509c12 13 32 13 44 0h0z" horiz-adv-x="875" />

<glyph glyph-name="chevrons-left" unicode="&#xe813;" d="M461-35l-356 385 354 385c5 6 8 14 8 21 0 9-3 17-10 23-13 12-32 11-44-2l-375-406c-11-12-11-30 0-42l375-407c12-12 31-13 44-1 15 11 15 31 4 44z m-46 406c-12-12-12-30 0-42l375-406c11-13 31-14 44-2 12 11 13 31 1 44l-353 385 353 385c6 6 9 14 9 21 0 9-4 17-10 23-13 12-33 11-44-2l-375-406z" horiz-adv-x="875" />

<glyph glyph-name="chevrons-right" unicode="&#xe814;" d="M415 735l353-385-353-385c-6-6-9-14-9-21 0-9 4-17 10-23 13-12 33-11 44 2l375 406c12 12 12 30 0 42l-375 407c-11 12-31 13-44 1-12-11-13-31-1-44z m46-406c11 12 11 30 0 42l-375 406c-12 13-32 14-45 2-12-11-13-31-1-44l353-385-353-385c-6-6-9-14-9-21 0-9 4-17 10-23 13-12 33-11 45 2l375 406z" horiz-adv-x="875" />

<glyph glyph-name="comments" unicode="&#xe815;" d="M813 506c0 190-182 344-407 344s-406-154-406-344c0-81 33-155 89-214-30-63-76-113-76-114-13-13-17-33-9-50 7-17 24-28 42-28 106 0 191 41 246 77 36-9 75-14 114-14 225 0 407 153 407 343z m-407-281c-33 0-66 4-99 12l-26 7-23-15c-40-26-101-57-176-65 19 24 44 60 63 102l18 38-29 31c-47 50-71 109-71 171 0 155 152 282 343 282s344-127 344-282-154-281-344-281z m778-225c42 55 66 122 66 194 0 190-168 344-375 344-1 0-1-1-2-1 1-10 2-20 2-31 0-10-1-21-2-31 1 0 1 0 2 0 172 0 313-126 313-281 0-56-19-110-54-157l-25-34 22-36c13-21 26-39 37-53-36 4-72 13-106 28l-25 10-25-11c-43-19-89-29-137-29-147 0-269 92-302 215-20-7-41-12-61-16 40-150 186-261 363-261 58 0 113 12 162 34 47-19 103-34 167-34 18 0 35 11 42 28 8 17 4 37-9 50 0 0-27 30-53 72z" horiz-adv-x="1250" />

<glyph glyph-name="envelope" unicode="&#xe816;" d="M0 600c0 69 56 125 125 125h750c69 0 125-56 125-125v-500c0-69-56-125-125-125h-750c-69 0-125 56-125 125v500z m63 0v-78l382-280c33-24 78-24 111 0l382 280v78c0 35-28 63-63 63h-752c-32 0-62-28-62-63h2z m0-155v-345c0-35 28-62 62-62h750c35 0 63 27 63 62v345l-346-253c-55-41-129-41-184 0l-345 253z" horiz-adv-x="1000" />

<glyph glyph-name="facebook-f" unicode="&#xe817;" d="M545 288l28 181h-174v117c0 49 25 98 102 98h79v154s-71 12-140 12c-143 0-236-87-236-244v-137h-159v-181h159v-438h195v438z" horiz-adv-x="625" />

<glyph glyph-name="instagram" unicode="&#xe818;" d="M438 575c-124 0-225-101-225-225s101-224 225-224 224 100 224 224-100 225-224 225z m0-371c-81 0-146 66-146 146s65 146 146 146 146-65 146-146-66-146-146-146z m286 380c0-29-24-53-53-53-29 0-52 24-52 53s23 52 52 52 53-23 53-52z m148-53c-3 70-19 132-70 183-52 51-114 67-184 71-72 4-289 4-361 0-70-4-132-20-183-71s-68-113-71-183c-4-72-4-289 0-361 3-70 19-132 71-184s113-67 183-70c72-5 289-5 361 0 70 3 132 19 184 70 51 52 67 114 70 184 4 72 4 288 0 361z m-93-439c-15-38-45-68-83-83-58-23-195-18-258-18s-201-5-258 18c-39 15-68 45-83 83-23 58-18 195-18 258s-5 201 18 258c15 39 44 68 83 83 57 23 194 18 258 18s200 5 258-18c38-15 68-44 83-83 23-57 18-194 18-258s5-200-18-258z" horiz-adv-x="875" />

<glyph glyph-name="magnifying-glass" unicode="&#xe819;" d="M991-97l-276 277c60 71 96 163 96 264 0 224-182 406-406 406s-405-182-405-406 182-406 405-406c100 0 193 37 264 97l276-276c8-6 16-9 24-9s16 3 22 9c12 12 12 32 0 44z m-585 197c-191 0-343 154-343 344s152 344 343 344 344-153 344-344-154-344-344-344z" horiz-adv-x="1000" />

<glyph glyph-name="xmark" unicode="&#xe81a;" d="M616 47c-12-12-32-12-44 0l-259 259-260-259c-12-12-32-12-44 0-12 12-12 32 0 44l259 259-259 259c-12 12-12 32 0 44 12 13 32 13 44 0l260-259 259 259c12 13 32 13 44 0 12-12 12-32 0-44l-259-259 259-259c12-12 12-32 0-44z" horiz-adv-x="625" />

<glyph glyph-name="thumbtack" unicode="&#xe81b;" d="M63 788c0 34 28 62 62 62h500c35 0 63-28 63-62 0-35-28-63-63-63h-58l23-289c71-39 128-104 155-185l2-6c6-19 1-40-10-56-11-17-29-26-49-26h-625c-21 0-39 9-51 26-12 16-15 37-9 56l2 6c27 81 84 146 155 185l23 289h-58c-34 0-62 28-62 63z m375-688v-188c0-34-28-62-63-62-35 0-62 28-62 62v188h125z" horiz-adv-x="750" />

<glyph glyph-name="user-1" unicode="&#xe81c;" d="M438 350c138 0 250 112 250 250s-112 250-250 250c-139 0-250-112-250-250s111-250 250-250z m0 438c103 0 187-85 187-188 0-103-84-187-187-187s-188 84-188 187c0 103 84 188 188 188z m99-532h-198c-187 0-339-151-339-338 0-38 30-68 68-68h739c38 0 68 30 68 68 0 187-152 338-338 338z m270-344h-739c-3 0-5 3-5 6 0 152 123 276 276 276h197c153 0 277-124 277-276 0-3-3-6-6-6z" horiz-adv-x="875" />

<glyph glyph-name="heart" unicode="&#xe81d;" d="M498 663l24 23c65 64 156 93 245 78 134-23 233-139 233-275v-12c0-81-34-158-93-214l-353-329c-14-14-34-22-54-22-20 0-39 8-54 22l-353 329c-59 56-93 133-93 214v12c0 136 99 252 233 275 88 15 180-14 244-78l21-23z m0-89l-66 68c-49 49-119 72-188 60-105-17-183-108-183-213v-12c0-64 28-124 75-168l353-330c3-2 7-4 9-4 6 0 10 2 14 4l353 330c46 44 73 104 73 168v12c0 105-77 196-182 213-70 12-139-11-188-60l-70-68z" horiz-adv-x="1000" />

<glyph glyph-name="cart-shopping" unicode="&#xe81e;" d="M156 850c15 0 28-10 31-24l8-38h863c40 0 72-40 60-80l-105-375c-8-27-32-45-60-45h-644l29-125h631c17 0 31-15 31-32 0-17-14-31-31-31h-656c-15 0-28 10-31 24l-151 664h-100c-17 0-31 14-31 31 0 17 14 31 31 31h125z m54-125l83-375h660l105 375h-848z m40-766c0 61 49 110 109 110 61 0 110-49 110-110 0-60-49-109-110-109-60 0-109 49-109 109z m109-47c26 0 47 21 47 47 0 26-21 47-47 47-26 0-46-21-46-47 0-26 20-47 46-47z m641 47c0-60-49-109-109-109-61 0-110 49-110 109 0 61 49 110 110 110 60 0 109-49 109-110z m-109 47c-26 0-47-21-47-47 0-26 21-47 47-47 26 0 47 21 47 47 0 26-21 47-47 47z" horiz-adv-x="1125" />

<glyph glyph-name="star-sharp" unicode="&#xe81f;" d="M644 506h309c20 0 38-12 45-31 6-19 0-40-16-52l-256-199 100-313c6-19-1-41-18-53-17-11-39-11-55 2l-253 196-252-196c-17-13-39-13-56-2-17 12-24 34-18 53l100 313-256 199c-16 12-22 33-15 52 6 19 24 31 44 31h309l99 311c7 20 25 33 45 33 21 0 39-13 45-33l99-311z" horiz-adv-x="1000" />

<glyph glyph-name="star-half" unicode="&#xe820;" d="M563-9l-251-134c-21-11-47-9-66 5-19 14-29 37-25 61l48 286-203 200c-17 17-23 41-16 64 8 22 27 39 50 42l281 41 126 259c10 21 32 35 54 35l2-859z m283-141c-2 0-4 0-6 0h6z" horiz-adv-x="1125" />

<glyph glyph-name="star" unicode="&#xe821;" d="M745 556l280-41c23-3 43-20 50-42 8-23 2-47-15-64l-204-200 49-286c3-24-6-47-26-61-19-14-45-16-65-5l-251 134-251-134c-21-11-47-9-66 5-19 14-29 37-25 61l48 286-203 200c-17 17-23 41-16 64 8 22 27 39 50 42l281 41 126 259c10 21 32 35 56 35 24 0 46-14 56-35l126-259z" horiz-adv-x="1125" />

<glyph glyph-name="star-sharp-half" unicode="&#xe822;" d="M455 817c7 20 25 33 45 33v-794l-252-196c-17-13-39-13-56-2-17 12-24 34-18 53l100 313-256 199c-16 12-22 33-15 52 6 19 24 33 44 33h309l99 309z" horiz-adv-x="1000" />

<glyph glyph-name="truck" unicode="&#xe823;" d="M203 116a47 47 0 1 1 47-47 47 47 0 0 1-47 47z m0-63a16 16 0 1 0 16 16 16 16 0 0 0-16-16z m594 63a47 47 0 1 1 47-47 47 47 0 0 1-47 47z m0-63a16 16 0 1 0 16 16 16 16 0 0 0-16-16z m185 274l-141 219a16 16 0 0 1-13 7h-187v86a55 55 0 0 1-55 55h-516a55 55 0 0 1-54-55v-570a16 16 0 0 1 15-16h64a109 109 0 0 1 216 0h378a109 109 0 0 1 216 0h64a16 16 0 0 1 15 16v250a16 16 0 0 1-2 8z m-779-336a78 78 0 1 0 78 78 78 78 0 0 0-78-78z m406 93h-298a109 109 0 0 1-216 0h-48v157h562z m0 188h-562v367a24 24 0 0 0 23 24h516a24 24 0 0 0 23-24z m241 203l90-141h-221v141z m-53-484a78 78 0 1 0 78 78 78 78 0 0 0-78-78z m156 218h-31a16 16 0 0 0 0 32h31z m0 63h-31a47 47 0 0 1 0-94h31v-94h-48a109 109 0 0 1-216 0h-48v438h179l10-16h-127a16 16 0 0 1-15-15v-172a16 16 0 0 1 15-16h250z m-203 0h-47a16 16 0 0 1 0-31h47a16 16 0 0 1 0 31z m-328-94h125a16 16 0 0 1 0 31h-125a16 16 0 0 1 0-31z m125-15h-47a16 16 0 0 1 0-32h47a16 16 0 0 1 0 32z" horiz-adv-x="1000" />

<glyph glyph-name="basket-shopping" unicode="&#xe824;" d="M438 69c0-17-15-31-32-31-17 0-31 14-31 31v187c0 17 14 32 31 32 17 0 32-15 32-32v-187z m125 219c17 0 31-15 31-32v-187c0-17-14-31-31-31-18 0-32 14-32 31v187c0 17 14 32 32 32z m187-219c0-17-14-31-31-31-17 0-31 14-31 31v187c0 17 14 32 31 32 17 0 31-15 31-32v-187z m-67 766l210-360h201c17 0 31-14 31-31 0-17-14-31-31-31h-47l-117-468c-16-56-64-95-121-95h-494c-56 0-106 39-120 95l-117 468h-47c-17 0-31 14-31 31 0 17 14 31 31 31h201l210 360c8 14 28 19 43 11 14-9 20-28 11-43l-191-328h516l-192 328c-8 15-3 34 11 43 16 8 35 3 43-11v0z m-427-875c7-28 32-48 59-48h494c28 0 53 20 60 48l113 453h-839l113-453z" horiz-adv-x="1125" />

<glyph glyph-name="store" unicode="&#xe825;" d="M842 446c-9 7-17 15-25 23-8-8-16-16-25-23-28-21-64-33-102-33-39 0-74 12-102 35-9 5-18 13-26 21-7-8-16-16-25-21-29-23-64-35-102-35-38 0-73 12-102 35-9 5-18 13-25 21-8-8-17-16-26-21-28-23-65-35-102-35-7 0-15 0-23 1-108 15-160 142-102 233l112 177c10 16 28 26 47 26h697c19 0 37-10 47-26l112-177c58-91 6-218-102-233-8-1-16-1-24-1-38 0-73 12-102 33h0z m65 342h-689l-110-174c-36-58 0-130 57-138 5-1 10-1 15-1 31 0 61 14 81 36 12 13 29 21 47 21 17 0 34-8 46-21 20-22 49-36 81-36 32 0 59 14 81 36 12 13 29 21 46 21 16 0 35-8 47-21 20-22 48-34 81-34 32 0 61 12 81 34 11 13 28 21 46 21 17 0 34-8 46-21 20-22 47-34 81-34 5 0 11-2 16-1 57 8 93 80 57 138l-110 174z m-719-469v-156h750v156c0 17 14 31 31 31 17 0 31-14 31-31v-344c0-69-56-125-125-125h-625c-69 0-125 56-125 125v344c0 17 14 31 31 31 18 0 32-14 32-31z m0-344c0-35 27-63 62-63h625c35 0 63 28 63 63v125h-750v-125z" horiz-adv-x="1125" />

<glyph glyph-name="user-2" unicode="&#xe826;" d="M974 34c-24 56-59 107-103 150-44 43-96 78-153 101-1 1-1 1-2 1 80 57 132 149 132 252 0 173-142 312-317 312-175 0-317-139-317-312 0-103 51-195 131-252 0 0-1-1-1-1-58-24-109-58-153-101-44-43-79-94-103-150-24-55-37-114-38-174 0-1 0-2 1-4 0-1 1-2 2-3 1-1 2-2 3-2 1-1 3-1 4-1h77c6 0 10 4 10 10 3 97 42 188 112 257 73 71 169 110 272 110 102 0 199-39 271-110 70-69 110-160 112-257 0-6 5-10 11-10h76c2 0 3 0 4 1 1 0 3 1 4 2 1 1 1 2 2 3 0 2 0 3 0 4-1 60-13 119-37 174z m-443 288c-59 0-114 23-156 64-41 41-64 95-64 152 0 58 23 112 64 153 42 41 97 64 156 64 58 0 114-23 155-64 42-41 65-95 65-153 0-57-23-111-65-152-41-41-97-64-155-64z" horiz-adv-x="1050" />

<glyph glyph-name="cart" unicode="&#xe827;" d="M458-150c-16 0-31 6-42 16-11 11-18 25-18 40 0 14 7 28 18 39 11 10 26 16 42 16 16 0 31-6 42-16 12-11 18-25 18-39 0-15-6-29-18-40-11-10-26-16-42-16z m398 0c-15 0-31 6-42 16-11 11-17 25-17 40 0 14 6 28 17 39 11 10 27 16 42 16 16 0 32-6 43-16 11-11 17-25 17-39 0-15-6-29-17-40-11-10-27-16-43-16z m-816 926c-11 0-21 4-28 11-8 7-12 16-12 26 0 10 4 19 12 26 7 7 17 11 28 11h199c9 0 18-3 25-8 7-6 12-13 14-22l42-192h756c6 0 11-1 17-4 5-2 10-6 14-10 3-4 6-9 7-15 2-5 2-11 1-16l-120-519c-2-8-7-15-14-21-7-5-16-8-25-8h-558c-9 0-18 3-25 9-7 5-12 13-14 21l-153 711h-166z m391-667h493l102 445h-691l96-445z" horiz-adv-x="1150" />

<glyph glyph-name="search" unicode="&#xe828;" d="M992-91l-271 271c65 78 98 179 91 280-7 102-53 197-128 266-76 69-175 106-276 103-102-2-199-43-271-116-72-72-114-169-116-271-3-101 34-200 103-275 69-76 164-122 266-129 101-6 202 26 280 91l271-271 51 51z m-898 524c0 64 19 126 54 180 36 53 86 94 145 119 60 24 125 31 187 18 63-12 121-43 166-88 45-46 76-103 88-166 13-63 7-128-18-187-24-59-66-110-119-145-53-36-116-55-180-55-86 1-168 35-228 95-61 61-95 143-95 229z" horiz-adv-x="1000" />

<glyph glyph-name="heart-big" unicode="&#xe829;" d="M577-150c-8 0-16 3-22 7-201 150-339 279-435 406-124 163-152 313-84 446 48 95 187 173 349 128 78-22 145-68 192-131 47 63 114 109 191 131 162 44 302-33 350-128 68-133 40-283-84-446-96-127-235-256-435-406-6-4-14-7-22-7z m-284 930c-38 2-77-7-111-25-33-18-62-44-81-76-56-110-31-233 77-375 115-142 249-268 399-375 150 107 284 233 399 375 108 142 133 265 77 374-36 70-144 125-265 92-38-11-74-29-105-54-30-25-55-56-73-91-3-7-7-12-13-16-6-4-13-6-20-6-7 0-14 2-20 6-6 4-11 9-14 16-17 35-42 66-72 91-31 25-67 43-106 54-23 7-47 10-72 10z" horiz-adv-x="1200" />

<glyph glyph-name="star-half-stroke-solid" unicode="&#xe82a;" d="M905-77c3-24-6-47-26-61-19-14-45-16-65-5l-251 134-251-134c-21-11-47-9-66 5-19 14-29 37-25 61l48 286-203 200c-17 17-23 41-16 64 8 22 27 39 50 42l281 41 126 259c10 21 32 35 56 35 24 0 46-14 56-35l126-259 280-41c23-3 43-20 50-42 8-23 2-47-15-64l-204-200 49-286z m-342 192l0 0 218-116-42 246 177 176-244 36-109 223 0 0v-565z" horiz-adv-x="1125" />

<glyph glyph-name="star-regular" unicode="&#xe82b;" d="M562 850c18 0 35-10 43-26l134-276 299-45c18-2 32-14 38-31 5-17 1-36-12-48l-217-215 51-304c3-18-4-36-19-46-14-10-35-12-49-3l-268 143-269-143c-14-9-33-7-48 3-14 10-21 28-20 46l53 304-217 215c-13 12-17 31-12 48 6 17 20 29 38 31l299 45 134 276c8 16 24 26 42 26l0 0z m0-154l-102-212c-7-13-20-23-36-26l-231-34 168-166c11-10 16-26 13-41l-39-234 205 110c14 8 31 8 44 0l206-110-40 234c-2 15 3 31 14 41l167 166-231 34c-15 3-28 13-35 26l-103 212z" horiz-adv-x="1125" />

<glyph glyph-name="arrow-down-long" unicode="&#xe82c;" d="M616 140l-281-281c-6-6-14-9-22-9s-16 3-23 9l-281 281c-12 13-12 32 0 45s32 12 44 0l228-228v862c0 17 14 31 32 31s31-14 31-31v-862l228 228c12 12 32 12 44 0s12-32 0-45z" horiz-adv-x="625" />

<glyph glyph-name="arrow-up-long" unicode="&#xe82d;" d="M9 560l281 281c7 6 15 9 23 9s16-3 22-9l281-281c12-13 12-32 0-45s-32-12-44 0l-228 228v-862c0-17-14-31-31-31s-32 14-32 31v862l-228-228c-12-12-32-12-44 0s-12 33 0 45z" horiz-adv-x="625" />

<glyph glyph-name="angle-left" unicode="&#xe82e;" d="M398 58c12-12 11-32-2-44-13-11-33-10-44 3l-281 312c-11 12-11 30 0 42l281 311c11 13 31 14 44 2 13-12 13-32 2-44l-262-290 262-292z" horiz-adv-x="500" />

<glyph glyph-name="angle-up" unicode="&#xe82f;" d="M711 204c-12-13-32-13-44-2l-292 262-292-262c-12-12-32-11-44 2-11 13-10 33 3 44l310 282c12 10 30 10 42 0l311-282c16-11 17-31 6-44z" horiz-adv-x="750" />

<glyph glyph-name="check-1" unicode="&#xe830;" d="M866 653c12-12 12-32 0-44l-531-531c-12-12-32-12-45 0l-281 281c-12 12-12 32 0 44 12 13 32 13 44 0l260-259 509 509c12 13 32 13 44 0h0z" horiz-adv-x="875" />

<glyph glyph-name="download" unicode="&#xe831;" d="M479 110c6-7 14-10 21-10s15 3 21 8l281 250c13 11 14 31 3 44-12 13-32 14-44 3l-230-204v618c0 17-14 31-31 31s-31-14-31-31v-618l-229 204c-13 11-33 10-45-3-11-11-10-33 3-42l281-250z m396 115h-94c-17 0-31-14-31-31 0-17 14-31 31-31h94c35 0 63-28 63-63v-125c0-35-28-63-63-63h-750c-34 0-62 28-62 63v125c0 35 28 63 62 63h94c17 0 31 14 31 31 0 17-14 31-31 31h-94c-69 0-125-56-125-125v-125c0-69 56-125 125-125h750c69 0 125 56 125 125v125c0 69-56 125-125 125z m-16-187c0 25-21 46-46 46s-47-21-47-46 21-47 47-47 46 21 46 47z" horiz-adv-x="1000" />

<glyph glyph-name="chart-column" unicode="&#xe832;" d="M31 788c18 0 32-14 32-32v-687c0-52 42-94 93-94h813c17 0 31-14 31-31 0-17-14-32-31-32h-813c-86 0-156 70-156 157v687c0 18 14 32 31 32z m250-438c17 0 32-14 32-31v-188c0-17-15-31-32-31-17 0-31 14-31 31v188c0 17 14 31 31 31z m219-219c0-17-14-31-31-31-17 0-31 14-31 31v438c0 17 14 31 31 31 17 0 31-14 31-31v-438z m156 344c17 0 32-14 32-31v-313c0-17-15-31-32-31-17 0-31 14-31 31v313c0 17 14 31 31 31z m219-344c0-17-14-31-31-31-17 0-31 14-31 31v500c0 17 14 32 31 32 17 0 31-15 31-32v-500z" horiz-adv-x="1000" />

<glyph glyph-name="heart-1" unicode="&#xe833;" d="M500-79q-14 0-25 10l-348 336q-5 5-15 15t-31 37-38 54-30 67-13 77q0 123 71 192t196 70q34 0 70-12t67-33 54-38 42-38q20 20 42 38t54 38 67 33 70 12q125 0 196-70t71-192q0-123-128-251l-347-335q-10-10-25-10z" horiz-adv-x="1000" />

<glyph glyph-name="spin4" unicode="&#xe834;" d="M498 850c-114 0-228-39-320-116l0 0c173 140 428 130 588-31 134-134 164-332 89-495-10-29-5-50 12-68 21-20 61-23 84 0 3 3 12 15 15 24 71 180 33 393-112 539-99 98-228 147-356 147z m-409-274c-14 0-29-5-39-16-3-3-13-15-15-24-71-180-34-393 112-539 185-185 479-195 676-31l0 0c-173-140-428-130-589 31-134 134-163 333-89 495 11 29 6 50-12 68-11 11-27 17-44 16z" horiz-adv-x="1001" />

<glyph glyph-name="list" unicode="&#xe835;" d="M172 756c26 0 47-21 47-47v-93c0-26-21-47-47-47h-94c-26 0-47 21-47 47v93c0 26 21 47 47 47h94z m781-47c26 0 47-21 47-46 0-26-21-47-47-47h-594c-26 0-46 21-46 47 0 25 20 46 46 46h594z m0-312c26 0 47-21 47-47 0-26-21-47-47-47h-594c-26 0-46 21-46 47 0 26 20 47 46 47h594z m0-313c26 0 47-20 47-46 0-26-21-47-47-47h-594c-26 0-46 21-46 47 0 26 20 46 46 46h594z m-922 313c0 26 21 47 47 47h94c26 0 47-21 47-47v-94c0-26-21-47-47-47h-94c-26 0-47 21-47 47v94z m141-266c26 0 47-21 47-47v-93c0-26-21-47-47-47h-94c-26 0-47 21-47 47v93c0 26 21 47 47 47h94z" horiz-adv-x="1000" />

<glyph glyph-name="grid-2-plus" unicode="&#xe836;" d="M344 788c52 0 94-42 94-94v-188c0-51-42-93-94-93h-188c-51 0-93 42-93 93v188c0 52 42 94 93 94h188z m0-94h-188v-188h188v188z m0-406c52 0 94-42 94-94v-188c0-52-42-94-94-94h-188c-51 0-93 42-93 94v188c0 52 42 94 93 94h188z m0-94h-188v-188h188v188z m219 500c0 52 42 94 93 94h188c52 0 94-42 94-94v-188c0-51-42-93-94-93h-188c-51 0-93 42-93 93v188z m93-188h188v188h-188v-188z m94-187c26 0 47-21 47-47v-125h125c26 0 47-21 47-47 0-26-21-47-47-47h-125v-125c0-26-21-47-47-47-26 0-47 21-47 47v125h-125c-26 0-47 21-47 47 0 26 21 47 47 47h125v125c0 26 21 47 47 47z" horiz-adv-x="1000" />

<glyph glyph-name="sliders-simple" unicode="&#xe837;" d="M953 178c26 0 47-21 47-47 0-26-21-47-47-47h-648c-20-63-79-109-149-109-86 0-156 70-156 156 0 87 70 157 156 157 70 0 129-46 149-110h648z m-859-47c0-34 28-62 62-62 35 0 63 28 63 62 0 35-28 63-63 63-34 0-62-28-62-63z m601 485c20 63 79 109 149 109 86 0 156-70 156-156 0-87-70-156-156-156-70 0-129 45-149 109h-648c-26 0-47 21-47 47 0 26 21 47 47 47h648z m149-110c34 0 62 28 62 63 0 34-28 62-62 62-35 0-63-28-63-62 0-35 28-63 63-63z" horiz-adv-x="1000" />

<glyph glyph-name="filter-list" unicode="&#xe838;" d="M607 725c44 0 81-36 81-80 0-21-8-40-24-55l-181-196v-355c0-35-27-64-62-64-15 0-25 4-35 10l-149 98c-21 14-34 39-34 65v246l-181 196c-14 15-22 34-22 55 0 44 36 80 81 80h526z m-312-312v-257l94-61v318c0 11 6 23 14 31l174 187h-466l173-187c8-8 11-20 11-31h0z m658-329c26 0 47-20 47-46 0-26-21-47-47-47h-281c-26 0-47 21-47 47 0 26 21 46 47 46h281z m-328 266c0 26 21 47 47 47h281c26 0 47-21 47-47 0-26-21-47-47-47h-281c-26 0-47 21-47 47z m328 359c26 0 47-21 47-46 0-26-21-47-47-47h-156c-26 0-47 21-47 47 0 25 21 46 47 46h156z" horiz-adv-x="1000" />

<glyph glyph-name="spin6" unicode="&#xe839;" d="M855 9c-189-190-520-172-705 13-190 190-200 494-28 695 11 13 21 26 35 34 36 23 85 18 117-13 30-31 35-76 16-112-5-9-9-15-16-22-140-151-145-379-8-516 153-153 407-121 542 34 106 122 142 297 77 451-83 198-305 291-510 222l0 1c236 82 492-24 588-252 71-167 37-355-72-493-11-15-23-29-36-42z" horiz-adv-x="1000" />

<glyph glyph-name="grid-2" unicode="&#xe83a;" d="M0 694c0 52 42 94 94 94h187c52 0 94-42 94-94v-188c0-51-42-93-94-93h-187c-52 0-94 42-94 93v188z m63 0v-188c0-17 14-31 31-31h187c17 0 32 14 32 31v188c0 17-15 31-32 31h-187c-17 0-31-14-31-31z m-63-500c0 52 42 94 94 94h187c52 0 94-42 94-94v-188c0-52-42-94-94-94h-187c-52 0-94 42-94 94v188z m63 0v-188c0-17 14-31 31-31h187c17 0 32 14 32 31v188c0 17-15 31-32 31h-187c-17 0-31-14-31-31z m718 594c52 0 94-42 94-94v-188c0-51-42-93-94-93h-187c-52 0-94 42-94 93v188c0 52 42 94 94 94h187z m0-63h-187c-17 0-31-14-31-31v-188c0-17 14-31 31-31h187c17 0 32 14 32 31v188c0 17-15 31-32 31z m-281-531c0 52 42 94 94 94h187c52 0 94-42 94-94v-188c0-52-42-94-94-94h-187c-52 0-94 42-94 94v188z m63 0v-188c0-17 14-31 31-31h187c17 0 32 14 32 31v188c0 17-15 31-32 31h-187c-17 0-31-14-31-31z" horiz-adv-x="875" />

<glyph glyph-name="phone-volume" unicode="&#xe83b;" d="M674 641c-20 16-49 13-66-7-16-20-13-49 7-66 66-54 104-133 104-216s-38-163-104-217c-20-16-23-46-7-66 9-11 23-17 36-17 11 0 21 4 30 11 88 70 139 176 139 289 0 110-51 215-139 289z m120 144c-20 17-50 14-66-6-17-20-14-50 6-66 110-90 172-222 172-361 0-141-62-273-172-363-20-16-23-46-6-66 9-11 22-17 36-17 11 0 21 3 30 11 131 105 206 264 206 435 0 167-75 326-206 433z m-484-336c40-4 78 19 93 56l59 149c16 41 1 87-35 109l-120 73c-35 22-81 17-111-12-126-127-196-295-196-472 0-179 70-348 196-474 18-19 41-28 64-28 16 0 32 4 47 14l120 74c36 23 51 69 35 110l-59 149c-15 37-53 59-92 56l-56-6c-17 68-17 139 0 206l55-4z m-134-268c7-20 27-33 49-31l91 12 61-144-114-75c-109 108-169 253-169 409 0 153 59 296 166 405l115-68-55-148-95 9c-22 3-41-10-49-31-37-109-37-229 0-338z m380 314c-20 16-50 13-66-7-17-20-14-49 7-66 22-18 34-44 34-72 0-28-12-54-34-72-21-16-24-46-7-66 9-11 23-17 36-17 11 0 21 3 30 11 44 36 69 88 69 144-2 56-25 109-69 145z" horiz-adv-x="1000" />

<glyph glyph-name="tags" unicode="&#xe83c;" d="M923 521c103-103 103-270 0-373l-218-222c-18-18-48-18-66 0-19 18-19 48-1 66l219 222c66 67 66 174 0 241l-250 253c-18 18-18 48 1 66 18 18 48 18 64 0l251-253z m-642 50c0-37-28-63-62-63-35 0-63 26-63 63 0 32 28 62 63 62 34 0 62-30 62-62z m521-148c49-49 49-128 0-177l-260-261c-49-49-128-49-177 0l-328 329c-24 23-37 55-37 88v292c0 52 42 94 94 94h292c33 0 65-14 88-37l328-328z m-708 273v-294c0-8 3-16 9-22l328-328c12-13 32-13 44 0l261 260c12 12 12 32 0 44l-328 329c-6 5-14 11-22 11l-292 0z" horiz-adv-x="1000" />

<glyph glyph-name="clock-regular" unicode="&#xe83d;" d="M453 616c0 26 21 47 47 47 26 0 47-21 47-47v-241l167-111c21-14 27-43 11-65-13-21-42-27-63-11l-188 125c-13 7-21 21-21 39l0 264z m47 234c276 0 500-224 500-500 0-276-224-500-500-500-276 0-500 224-500 500 0 276 224 500 500 500z m-406-500c0-224 182-406 406-406 224 0 406 182 406 406 0 224-182 406-406 406-224 0-406-182-406-406z" horiz-adv-x="1000" />

<glyph glyph-name="circle-user-regular" unicode="&#xe83e;" d="M500 631c-95 0-172-77-172-172 0-94 77-171 172-171s172 77 172 171c0 95-77 172-172 172z m0-250c-43 0-78 35-78 78 0 44 35 79 78 79s78-35 78-79c0-43-35-78-78-78z m0 469c-276 0-500-224-500-500s224-500 500-500 500 224 500 500-224 500-500 500z m0-906c-91 0-175 30-243 81 34 65 99 106 173 106h140c74 0 139-41 173-106-68-51-152-81-243-81z m313 147c-53 83-143 134-243 134h-140c-100 0-190-51-243-134-58 71-93 161-93 259 0 224 182 406 406 406s406-182 406-406c0-98-35-188-93-259z" horiz-adv-x="1000" />

<glyph glyph-name="circle-check" unicode="&#xe83f;" d="M460 203c-12-12-32-12-45 0l-125 125c-12 12-12 32 0 44 13 12 33 12 45 0l103-103 227 228c13 12 33 12 45 0 12-12 12-32 0-44l-250-250z m540 147c0-276-224-500-500-500-276 0-500 224-500 500 0 276 224 500 500 500 276 0 500-224 500-500z m-500 438c-242 0-437-196-437-438 0-242 195-438 437-438 242 0 438 196 438 438 0 242-196 438-438 438z" horiz-adv-x="1000" />

<glyph glyph-name="solutions" unicode="&#xe840;" d="M630 477c0 72-58 130-130 130s-130-58-130-130c0-36 12-55 23-72 12-19 24-37 29-80-11-5-19-16-19-30v-41c0-18 15-33 33-33h6v-6c0-17 14-32 32-32h52c18 0 32 15 32 32v6h6c18 0 33 15 33 33v41c0 14-8 25-19 30 5 43 17 61 29 80 11 17 23 36 23 72z m-60-223c0-3-3-6-6-6h-19c-8 0-14-6-14-13v-20c0-2-2-4-5-4h-52c-3 0-5 2-5 4v20c0 7-6 13-13 13h-20c-3 0-6 3-6 6v41c0 3 3 6 6 6h128c3 0 6-3 6-6z m14 165c-13-19-28-42-33-91h-37v119l43 25c6 4 9 12 5 19-4 7-12 9-19 5l-43-25-43 25c-7 4-15 2-19-5s-1-15 5-19l43-25v-119h-37c-5 49-20 72-33 91-11 17-19 30-19 58 0 57 46 103 103 103 57 0 103-46 103-103 0-28-8-41-19-58z m385-55h-125l0 92h35c6-22 27-39 51-39 29 0 52 24 52 53s-23 52-52 52c-24 0-45-16-51-38h-48c-4 0-7-2-10-4-3-3-4-7-4-10l0-106h-88c-7 0-14-6-14-14 0-119-96-215-215-215s-215 96-215 215c0 8-6 14-14 14h-88l0 106c0 3-1 7-4 10-2 2-6 4-10 4h-48c-6 22-27 38-51 38-29 0-52-23-52-52s23-53 52-53c24 0 45 17 51 39h35l0-92h-125c-7 0-13-6-13-14v-47c0-24 20-44 44-44 37 0 69-22 83-56 14-34 7-72-19-98-9-8-13-20-13-31s4-24 13-32l66-66c8-9 20-13 32-13s23 4 31 13c26 26 64 34 98 19 34-14 56-46 56-83 0-25 20-44 44-44h94c24 0 44 19 44 44 0 37 22 69 56 83 34 14 72 7 98-19 9-9 20-13 32-13 11 0 23 4 31 13l66 66c18 17 18 46 0 63-26 26-33 64-19 98 14 34 46 56 83 56 25 0 44 20 44 44v47c0 4-1 7-4 10-2 2-6 4-9 4z m-39 131c14 0 25-11 25-25 0-14-11-25-25-25s-25 11-25 25c0 14 11 25 25 25z m-860-50c-14 0-25 11-25 25 0 14 11 25 25 25s25-11 25-25c0-14-11-25-25-25z m885-142c0-9-8-17-17-17-48 0-90-28-108-72-19-45-9-94 25-128 7-7 7-18 0-25l-66-66c-4-3-8-5-12-5-5 0-9 2-13 5-34 34-83 44-127 25-45-18-73-60-73-108 0-9-8-17-17-17h-94c-9 0-17 8-17 17 0 48-28 90-72 109-15 6-31 9-46 9-30 0-60-12-82-35-4-3-8-5-12-5s-9 2-13 5l-66 66c-3 4-5 8-5 13s2 8 5 12c34 34 44 83 25 128-18 44-60 72-108 72-9 0-17 8-17 17v33h213c7-127 113-229 242-229s235 102 242 229h213z m-612 445c-5 5-5 14 0 19 42 42 98 65 157 65 59 0 115-23 157-65 6-5 6-14 0-19-2-3-6-4-9-4-4 0-7 1-10 4-37 37-86 57-138 57-52 0-101-20-138-57-5-5-14-5-19 0z m157-47c24 0 47-10 64-27 6-5 6-14 0-19-2-3-6-4-9-4s-7 1-10 4c-12 12-28 18-45 18s-33-6-45-18c-5-5-14-5-19 0-5 5-5 14 0 19 17 17 40 27 64 27z m91 0c-24 25-56 38-91 38-34 0-67-13-91-38-6-5-14-5-20 0-5 6-5 14 0 20 30 29 69 46 111 46 42 0 81-17 111-46 5-6 5-14 0-20-3-2-6-4-10-4-3 0-7 2-10 4z" horiz-adv-x="1000" />

<glyph glyph-name="headset" unicode="&#xe841;" d="M373 413c0 34-28 62-62 62l-30 0c-69 0-125-56-125-125v-93c0-70 56-126 125-126h32c34 0 62 28 62 63l-2 219z m127 437c-279 0-491-233-500-500l0-78c0-26 21-47 45-47s49 21 49 47v78c0 224 182 406 406 406 224 0 406-182 406-406v-281c0-43-35-78-78-78h-216c-16 28-46 47-81 47h-59c-45 0-87-31-95-76-12-60 34-112 90-112h64c35 0 65 19 81 47h216c95 0 172 77 172 172v281c-9 267-220 500-500 500z m219-719c69 0 125 56 125 126v93c0 69-56 125-125 125l-31 0c-35 0-63-28-63-63l0-218c0-35 28-63 63-63h31z" horiz-adv-x="1000" />

<glyph glyph-name="angles-right" unicode="&#xe842;" d="M148 683c-11 13-31 14-44 3-13-12-14-31-2-44l262-292-262-292c-11-12-11-31 2-44 13-11 33-10 44 3l281 310c11 12 11 30 0 42l-281 314z m657-312l-282 312c-11 13-31 14-44 3-13-12-14-32-2-44l262-292-262-292c-11-12-11-31 2-44 13-11 33-10 44 3l281 310c11 14 11 32 1 44z" horiz-adv-x="875" />

<glyph glyph-name="angles-right-1" unicode="&#xe843;" d="M482 394l-313 313c-24 24-64 24-88 0s-25-64 0-89l268-268-268-268c-25-25-25-64 0-89 12-12 28-18 44-18s32 6 44 18l313 313c24 24 24 64 0 88z m375 0l-313 313c-24 24-64 24-88 0s-25-64 0-89l268-268-268-268c-25-25-25-64 0-89 12-12 28-18 44-18s32 6 44 18l313 313c24 24 24 64 0 88z" horiz-adv-x="875" />

<glyph glyph-name="minus" unicode="&#xe844;" d="M550 400q30 0 30-50t-30-50l-520 0q-30 0-30 50t30 50l520 0z" horiz-adv-x="580" />

<glyph glyph-name="minus-1" unicode="&#xe845;" d="M729 455q44 0 74-32t31-73-31-74-74-30l-625 0q-44 0-74 30t-30 74q0 43 31 74t73 31l625 0z" horiz-adv-x="834" />

<glyph glyph-name="minus-2" unicode="&#xe846;" d="M18 239l0 223 893 0 0-223-893 0z" horiz-adv-x="928" />

<glyph glyph-name="ok-circled" unicode="&#xe853;" d="M717 440q0 16-10 26l-51 50q-11 11-25 11t-25-11l-228-227-126 126q-11 11-25 11t-25-11l-51-50q-10-10-10-26 0-15 10-25l202-202q10-10 25-10 15 0 26 10l303 303q10 10 10 25z m140-90q0-117-57-215t-156-156-215-58-216 58-155 156-58 215 58 215 155 156 216 58 215-58 156-156 57-215z" horiz-adv-x="857.1" />

<glyph glyph-name="arrow-down-right" unicode="&#xe857;" d="M563 38c34 0 62 27 62 62l0 438c0 34-28 62-62 62s-63-28-63-62l0-287-393 393c-25 25-64 25-89 0s-24-64 0-88l394-393-287 0c-35 0-62-28-62-63s27-62 62-62l438 0z" horiz-adv-x="625" />

<glyph glyph-name="youtube" unicode="&#xe858;" d="M1074 608c-13 46-49 82-95 95-83 22-416 22-416 22s-334 0-417-22c-46-13-82-49-94-95-23-84-23-259-23-259s0-174 23-258c12-46 48-81 94-94 83-22 417-22 417-22s333 0 416 22c46 13 82 48 95 94 22 84 22 258 22 258s0 175-22 259z m-621-417v317l279-159-279-158z" horiz-adv-x="1125" />

<glyph glyph-name="envelope-open" unicode="&#xe859;" d="M499 756c0 0 1 0 1 0s1 0 1 0l399-285c4-3 6-7 6-13v-26l-337-277c-40-33-98-33-138 0l-337 277v26c0 6 2 10 6 13l399 285z m-405-445l277-228c75-62 183-62 258 0l277 228v-352c0-8-7-15-15-15h-782c-8 0-15 7-15 15v352z m406 539c-20 0-39-6-56-18l-398-284c-29-21-46-54-46-90v-499c0-60 49-109 109-109h782c60 0 109 49 109 109v499c0 36-17 69-46 90l-398 284c-16 12-36 18-56 18z" horiz-adv-x="1000" />

<glyph glyph-name="linkedin" unicode="&#xe85a;" d="M813 788h-751c-34 0-62-29-62-64v-748c0-35 28-64 62-64h751c34 0 62 29 62 64v748c0 35-28 64-62 64z m-548-750h-130v417h130v-417z m-65 474c-42 0-76 34-76 75s34 76 76 76c41 0 75-34 75-76 0-41-34-75-75-75z m551-474h-130v203c0 48-1 110-67 110-68 0-78-52-78-107v-206h-130v417h124v-57h2c18 33 60 67 123 67 131 0 156-86 156-199v-228z" horiz-adv-x="875" />

<glyph glyph-name="behance" unicode="&#xe85b;" d="M453 387c62 29 95 74 95 144 0 138-103 172-222 172h-326v-692h336c125 0 244 60 244 201 0 86-42 151-127 175z m-301 198h143c55 0 104-16 104-79 0-59-38-83-93-83h-154v162z m163-457h-163v191h166c67 0 109-28 109-99 0-70-50-92-112-92z m700 470h-281v68h281v-68z m110-344c0 148-87 272-244 272-153 0-256-115-256-265 0-156 98-264 256-264 120 0 197 54 235 169h-122c-13-43-67-65-109-65-80 0-123 47-123 127h362c0 8 1 17 1 26z m-362 61c4 66 48 107 114 107 69 0 104-41 110-107h-224z" horiz-adv-x="1125" />

<glyph glyph-name="phone" unicode="&#xe85c;" d="M734 313c-32 13-69 4-91-23l-65-79c-90 52-165 127-217 217l79 65c27 22 36 59 22 91l-93 219c-15 34-52 53-88 45l-219-47c-36-7-62-39-62-76v0c0-452 342-823 781-870 20-2 39-4 58-4 0 0 0 0 0 0 0 0 1 0 1 0 11-1 23-1 35-1l0 0c37 0 69 26 76 61l47 219c8 37-11 74-45 88l-219 94z m128-369c-421 7-761 347-768 768l194 42 84-196-70-58c-36-29-45-79-22-119 60-104 147-191 251-251 40-23 91-14 120 21l57 71 196-84-42-194z m-768 781v0 0 0 0 0 0 0 0 0 0 0 0 0 0 0 0 0 0 0 0 0 0 0s0 0 0 0" horiz-adv-x="1000" />

<glyph glyph-name="play-1" unicode="&#xe85d;" d="M750 350l-750 438v-876l750 438z" horiz-adv-x="750" />

<glyph glyph-name="envelope-open-1" unicode="&#xe85e;" d="M959 502l-389 322c-20 17-45 26-70 26s-50-9-72-26l-387-322c-26-22-41-53-41-89v-438c0-69 56-125 125-125h750c69 0 125 56 125 125v438c0 36-15 67-41 89z m-898-24l389 322c15 13 32 19 50 19s36-6 50-19l389-322c18-15 36-38 0-68l-389-323c-14-12-32-16-50-16s-36 6-50 18l-389 321c-37 30-17 55 0 68z m908-501c0-52-42-94-94-94h-750c-52 0-94 42-94 94v420c4-3 6-8 10-11l389-323c20-16 43-25 70-25 25 0 50 9 70 25l389 323c2 5 6 7 10 11v-420z" horiz-adv-x="1000" />

<glyph glyph-name="map-location-dot-1" unicode="&#xe85f;" d="M656 631c0-51-42-93-93-93-52 0-94 42-94 93 0 52 42 94 94 94 51 0 93-42 93-94z m-93 63c-35 0-63-28-63-63 0-34 28-62 63-62 34 0 62 28 62 62 0 35-28 63-62 63z m-29-452c-63 77-206 267-206 374 0 129 105 234 235 234 129 0 234-105 234-234 0-107-143-297-206-374-15-20-42-20-57 0v0z m211 293c14 33 21 60 21 81 0 112-91 203-203 203-113 0-204-91-204-203 0-21 7-48 21-81 14-32 33-67 54-101 41-69 93-135 124-172 2-5 7-5 9 0 31 37 81 103 124 172 21 34 40 69 54 101h0z m86-36c3 6 6 13 8 19l202 74c41 15 84-16 84-59v-510c0-26-16-49-41-58l-313-114c-3-1-7-1-10 0l-401 123-276-100c-41-15-84 15-84 59v509c0 26 16 50 41 59l227 82c2-10 4-20 7-30l-223-81c-12-5-21-17-21-30v-509c0-22 22-37 42-30l271 99v272c0 7 7 15 15 15 9 0 16-8 16-15v-272l375-115v387c0 7 7 15 16 15 8 0 15-8 15-15v-386l292 106c13 5 21 16 21 29v510c0 22-23 37-42 30l-229-84c2 7 5 13 8 20l0 0z" horiz-adv-x="1125" />

<glyph glyph-name="phone-1" unicode="&#xe860;" d="M963 164l-212 91c-25 11-54 3-71-18l-86-105c-135 67-245 177-312 312l106 86c20 17 28 46 17 71l-91 212c-12 27-41 42-70 35l-197-45c-27-6-47-31-47-59 0-493 401-894 894-894 28 0 53 19 59 47l46 197c6 29-10 58-36 70z m5-63l-45-197c-3-13-16-23-29-23-476 0-863 387-863 863 0 14 10 25 23 29l197 45c14 3 29-4 35-17l90-212c6-12 2-27-8-35l-124-102c121-260 329-345 359-359l101 125c9 10 23 13 35 8l212-91c13-5 20-20 17-34z" horiz-adv-x="1000" />

<glyph glyph-name="chevron-right" unicode="&#xe861;" d="M580 383c18-18 18-48 0-66l-375-375c-18-19-48-19-66 0s-18 48 0 66l342 342-342 342c-19 18-19 48 0 66s48 18 66 0l375-375z" horiz-adv-x="625" />

<glyph glyph-name="chevron-left" unicode="&#xe862;" d="M14 383c-19-18-19-48 0-66l375-375c18-19 48-19 66 0s18 48 0 66l-342 342 342 342c18 18 18 48 0 66s-48 18-66 0l-375-375z" horiz-adv-x="625" />

<glyph glyph-name="arrow-up" unicode="&#xe863;" d="M409 773c-9 9-21 15-34 15s-25-6-34-15l-328-344c-18-18-17-48 2-66s48-17 66 2l247 259v-665c0-26 21-47 47-47s47 21 47 47v665l247-259c18-19 48-20 66-2s20 47 2 66l-328 344z" horiz-adv-x="750" />

<glyph glyph-name="play-pause" unicode="&#xe864;" d="M500 350l-500-375v750l500-375z m250 313v-625-63h-125v63 625 62h125v-62z m250 0v-625-63h-125v63 625 62h125v-62z" horiz-adv-x="1000" />

<glyph glyph-name="play-2" unicode="&#xe865;" d="M750 350l-750 438v-876l750 438z" horiz-adv-x="750" />

<glyph glyph-name="cart-shopping-bold" unicode="&#xe866;" d="M47 850c-26 0-47-21-47-47s21-47 47-47h89c7 0 14-5 15-12l101-530c13-66 71-114 138-114h563c26 0 47 21 47 47s-21 47-47 47h-563c-22 0-42 16-46 38l-11 56h564c64 0 119 42 136 104l80 297c13 50-24 99-76 99h-802c-18 37-56 62-99 62h-89z m209-156h761l-75-278c-5-20-24-35-45-35h-581l-60 313z m88-844a94 94 0 1 1 0 188 94 94 0 1 1 0-188z m656 94a94 94 0 1 1-187 0 94 94 0 1 1 187 0z" horiz-adv-x="1125" />

<glyph glyph-name="calendar-lines-pen" unicode="&#xe867;" d="M250 725h375v94c0 17 14 31 31 31 17 0 32-14 32-31v-94h62c69 0 125-56 125-125v-125h-812v-500c0-35 28-63 62-63h380l-2-8c-5-18-4-37 3-54h-381c-69 0-125 56-125 125v625c0 69 56 125 125 125h63v94c0 17 14 31 31 31 17 0 31-14 31-31v-94z m-187-125v-62h750v62c0 35-28 63-63 63h-625c-34 0-62-28-62-63z m406-437c17 0 31-15 31-32 0-17-14-31-31-31h-250c-17 0-31 14-31 31 0 17 14 32 31 32h250z m-281 156c0 17 14 31 31 31h437c17 0 32-14 32-31 0-17-15-31-32-31h-437c-17 0-31 14-31 31z m737 60c37 36 96 36 132 0l34-34c37-37 37-96 0-133l-300-300c-12-12-27-21-43-23l-147-38c-10-3-21 0-29 8-8 8-11 19-8 29l36 147c4 16 13 31 25 43l300 301z m88-45c-12 13-32 13-44 0l-48-48 78-78 48 50c12 11 12 30 0 42l-34 34z m-352-314l-26-96 97 24c6 1 11 4 15 8l208 208-79 78-207-208c-4-4-7-9-8-14h0z" horiz-adv-x="1125" />

<glyph glyph-name="user-group" unicode="&#xe868;" d="M537 256h-198c-187 0-339-151-339-338 0-38 30-68 68-68h739c38 0 68 30 68 68 0 187-152 338-338 338z m270-344h-739c-3 0-5 3-5 6 0 152 123 276 276 276h198c152 0 276-124 276-276 0-3-3-6-6-6z m-369 438c138 0 250 112 250 250s-112 250-250 250c-139 0-250-112-250-250s111-250 250-250z m0 438c103 0 187-85 187-188 0-103-84-187-187-187s-188 84-188 187c0 103 84 188 188 188z m295-409c34-19 72-29 111-29 121 0 219 98 219 219s-98 219-219 219c-25 0-50-5-73-13-16-6-25-24-19-40 6-16 24-25 40-19 16 6 34 9 52 9 86 0 156-70 156-156s-70-156-156-156c-28 0-55 7-78 20-15 9-34 4-43-11-9-15-4-34 10-43z m225-154h-83c-17 0-31-14-31-31s14-31 31-31h83c127 0 230-103 230-230 0-11-10-21-21-21h-198c-17 0-31-14-31-31s14-31 31-31h198c46 0 83 37 83 83 0 163-131 292-292 292z" horiz-adv-x="1250" />

<glyph glyph-name="arrow-up-right-1" unicode="&#xe869;" d="M578 663c26 0 47-21 47-47v-469c0-26-21-47-47-47s-47 21-47 47v356l-451-452c-18-18-48-18-66 0s-19 48 0 66l451 452h-356c-26 0-46 21-46 46s20 47 46 47h469z" horiz-adv-x="625" />

<glyph glyph-name="location-dot-2" unicode="&#xe86a;" d="M219 475c0 86 70 156 156 156 86 0 156-70 156-156 0-86-70-156-156-156-86 0-156 70-156 156z m156 125c-69 0-125-56-125-125 0-69 56-125 125-125 69 0 125 56 125 125 0 69-56 125-125 125z m375-125c0-171-228-475-329-600-24-30-68-30-92 0-102 125-329 429-329 600 0 207 168 375 375 375 207 0 375-168 375-375h0z m-375 344c-190 0-344-154-344-344 0-36 13-83 35-136 22-52 53-109 87-165 69-109 150-217 200-280 12-14 32-14 44 0 50 63 131 171 200 280 34 56 65 113 87 165 22 53 35 100 35 136 0 190-154 344-344 344h0z" horiz-adv-x="750" />

<glyph glyph-name="share-nodes-1" unicode="&#xe86b;" d="M875 631c0-86-70-156-156-156-45 0-85 19-114 51l-295-150c2-8 3-17 3-26 0-9-1-18-3-26l295-148c29 30 69 49 114 49 86 0 156-70 156-156 0-87-70-157-156-157-87 0-156 70-156 157 0 19 3 39 9 54l-284 142c-28-43-77-71-132-71-86 0-156 70-156 156 0 86 70 156 156 156 55 0 104-28 132-71l284 142c-6 17-9 35-9 54 0 87 69 157 156 157 86 0 156-70 156-157l0 0z m-720-375c53 0 93 42 93 94 0 52-40 94-93 94-50 0-94-42-94-94 0-52 44-94 94-94z m564 469c-52 0-94-42-94-94 0-51 42-93 94-93 52 0 94 42 94 93 0 52-42 94-94 94z m0-750c52 0 94 42 94 94 0 52-42 94-94 94-52 0-94-42-94-94 0-52 42-94 94-94z" horiz-adv-x="875" />

<glyph glyph-name="circle-plus" unicode="&#xe86c;" d="M469 163v156h-156c-18 0-32 14-32 31 0 17 14 31 32 31h156v157c0 17 14 31 31 31 17 0 31-14 31-31v-157h157c17 0 31-14 31-31 0-17-14-31-31-31h-157v-156c0-18-14-32-31-32-17 0-31 14-31 32z m531 187c0-276-224-500-500-500-276 0-500 224-500 500 0 276 224 500 500 500 276 0 500-224 500-500z m-500 438c-242 0-437-196-437-438 0-242 195-438 437-438 242 0 438 196 438 438 0 242-196 438-438 438z" horiz-adv-x="1000" />

<glyph glyph-name="users" unicode="&#xe86d;" d="M1087 475h-149c-12 0-24-1-35-4-9-2-14-10-12-19 2-8 10-14 19-12 9 3 18 4 28 4h149c73 0 132-63 132-141 0-8-6-15-14-15h-330c-9 0-16-7-16-16s7-16 16-16h330c25 0 45 21 45 47 0 95-73 172-163 172z m-87 63c86 0 156 70 156 156s-70 156-156 156c-86 0-156-70-156-156s70-156 156-156z m0 281c69 0 125-56 125-125s-56-125-125-125-125 56-125 125 56 125 125 125z m-750-281c86 0 156 70 156 156s-70 156-156 156c-86 0-156-70-156-156s70-156 156-156z m0 281c69 0 125-56 125-125s-56-125-125-125-125 56-125 125 56 125 125 125z m141-547c0 9-7 16-16 16h-330c-7 0-14 7-14 15 0 78 59 141 132 141h150c9 0 18-1 27-3 9-3 17 3 19 11 2 9-3 17-12 19-13 3-24 4-34 4h-150c-90 0-163-77-163-172 0-26 20-47 45-47h330c9 0 16 7 16 16z m234-47c112 0 201 91 201 203 0 112-91 203-201 203-112 0-202-91-202-203-1-112 90-203 202-203z m0 375c95 0 172-77 172-172s-77-172-172-172-172 77-172 172 77 172 172 172z m98-437h-195c-154 0-278-117-278-261 0-29 25-52 56-52h639c30 0 55 23 55 52 0 144-124 261-277 261z m222-282h-639c-14 0-25 10-25 21 0 127 111 229 247 229h195c135 0 246-102 246-229 0-11-11-21-24-21z" horiz-adv-x="1250" />

<glyph glyph-name="video" unicode="&#xe86e;" d="M125 663c-35 0-62-28-62-63v-500c0-35 27-62 62-62h500c35 0 63 27 63 62v500c0 35-28 63-63 63h-500z m-125-63c0 69 56 125 125 125h500c69 0 125-56 125-125v-92-316-92c0-69-56-125-125-125h-500c-69 0-125 56-125 125v500z m1015-553l-202 111v71l232-128c1-1 3-1 5-1 7 0 13 5 13 12v476c0 7-6 12-13 12-2 0-4-1-5-2l-232-127v71l202 111c10 6 23 10 35 10 42 0 75-34 75-75v-476c0-41-33-74-75-74-12 0-25 3-35 9z" horiz-adv-x="1125" />

<glyph glyph-name="chart-bar" unicode="&#xe86f;" d="M31 788c18 0 32-14 32-32v-687c0-52 42-94 93-94h813c17 0 31-14 31-31 0-17-14-32-31-32h-813c-86 0-156 70-156 157v687c0 18 14 32 31 32z m219-219c0 17 14 31 31 31h438c17 0 31-14 31-31 0-17-14-31-31-31h-438c-17 0-31 14-31 31z m344-156c17 0 31-15 31-32 0-17-14-31-31-31h-313c-17 0-31 14-31 31 0 17 14 32 31 32h313z m250-188c17 0 31-14 31-31 0-17-14-31-31-31h-563c-17 0-31 14-31 31 0 17 14 31 31 31h563z" horiz-adv-x="1000" />

<glyph glyph-name="timer" unicode="&#xe870;" d="M1000 350c0-276-224-500-500-500-276 0-500 224-500 500 0 104 32 201 86 281 10 14 29 18 44 8 14-8 18-29 8-43-48-70-75-155-75-246 0-242 195-438 437-438 242 0 438 196 438 438 0 231-180 420-407 436v-155c0-17-14-31-31-31-17 0-31 14-31 31v188c0 17 14 31 31 31 276 0 500-224 500-500v0z m-478 22c12-12 12-32 0-44-12-12-32-12-44 0l-188 187c-12 13-12 33 0 45 13 12 33 12 45 0l187-188z" horiz-adv-x="1000" />

<glyph glyph-name="floppy-disk" unicode="&#xe871;" d="M684 742c-30 29-69 46-111 46h-417c-86 0-156-71-156-157v-562c0-86 70-157 156-157h563c86 0 156 71 156 157v417c0 42-16 81-46 110l-145 146z m-496-17h375v-187h-375v187z m625-656c0-52-43-94-94-94h-563c-51 0-93 42-93 94v562c0 41 26 75 62 88v-181c0-35 28-63 63-63h375c34 0 62 28 62 63v171c5-3 10-7 15-11l145-146c18-18 28-41 28-66v-417z m-375 312c-87 0-157-70-157-156s70-156 157-156 156 70 156 156-70 156-156 156z m0-250c-52 0-94 42-94 94s42 94 94 94 93-42 93-94-42-94-93-94z" horiz-adv-x="875" />

<glyph glyph-name="pen-to-square" unicode="&#xe872;" d="M861 735l24-24c18-18 18-48 0-66l-57-57-90 90 57 57c18 18 48 18 66 0z m-451-385l262 262 90-90-262-262c-6-6-13-10-21-12l-114-33 33 115c2 7 6 14 12 20z m319 451l-386-385c-17-17-29-38-35-61l-56-195c-5-16 0-34 12-46s29-17 46-12l195 56c23 7 44 19 61 36l385 385c55 55 55 144 0 199l-23 23c-55 55-144 55-199 0z m-557-76c-95 0-172-77-172-172v-531c0-95 77-172 172-172h531c95 0 172 77 172 172v219c0 26-21 47-47 47s-47-21-47-47v-219c0-43-35-78-78-78h-531c-43 0-78 35-78 78v531c0 43 35 78 78 78h219c26 0 47 21 47 47s-21 47-47 47h-219z" horiz-adv-x="1000" />

<glyph glyph-name="file-certificate" unicode="&#xe873;" d="M475 188c20 20 28 51 21 79-6 26-7 15 1 41 8 29 0 59-21 80-19 19-19 16-24 42-7 29-29 53-57 59-26 7-23 4-42 24-21 21-51 29-79 22-26-7-22-7-48 0-28 7-58-1-79-22-19-20-16-17-42-24-28-8-50-30-57-59-7-26-5-23-24-42-21-21-29-51-21-80 7-26 7-15 0-41-8-28 0-59 21-79 19-20 17-16 24-44 8-28 30-50 57-57 11-3 16-5 20-7v-199c0-11 6-21 15-26 9-6 21-7 30-2l80 40 80-40c4-2 9-3 14-3 6 0 11 2 16 5 9 5 15 15 15 26v198c4 2 10 3 20 6 28 7 50 30 57 58 7 29 5 25 23 45z m-162-256l-49 24c-9 4-19 4-28 0l-48-24v108c12-3 25-3 38 0 27 8 22 8 48 0 13-3 26-3 39 0v-108z m121 328c5-17 6-20-7-34-23-23-26-28-35-65-3-12-12-14-20-16-31-8-36-11-59-35-11-10-13-12-29-8-31 9-37 9-68 0-16-4-18-2-29 8-23 24-28 27-58 35-8 2-18 4-21 16-9 37-12 42-34 65-14 14-13 17-8 34 6 25 6 31 0 55-5 16-6 20 7 33 23 24 25 29 34 60 4 15 5 18 21 22 32 9 36 12 59 35 11 10 13 12 29 8 31-9 37-9 68 0 16 4 18 2 29-8 23-23 28-26 59-35 16-4 17-7 21-22 9-32 12-36 34-60 13-13 12-16 7-33-6-24-6-30 0-55z m530 345l-208 208c-24 24-56 37-89 37l-294 0c-69 0-125-56-125-125l2-94c0-17 14-31 31-31 17 0 32 14 32 31v94c0 35 28 63 62 63h250v-219c0-52 42-94 94-94h219v-500c0-35-28-63-63-63h-406c-17 0-31-14-31-31 0-17 14-31 31-31l404 0c69 0 125 56 125 125v542c2 33-11 65-34 88z m-245-67c-17 0-31 14-31 31v214c8-3 16-7 23-14l208-208c7-6 12-15 14-23h-214z" horiz-adv-x="1000" />

<glyph glyph-name="graduation-cap" unicode="&#xe874;" d="M600 721l-507-183 145-53c20 14 42 25 65 34l311 117c16 6 34-3 40-19s-2-34-18-40l-311-117c-3-1-6-2-9-3l284-103c8-3 16-4 25-4s17 2 25 4l507 184-507 183c-8 3-16 4-25 4s-17-2-25-4z m-21-425l-331 119c-54-45-88-112-91-184 11-26 20-54 26-81 12-54 21-129 4-212-2-9-7-16-14-21s-16-6-24-4l-125 32c-10 2-18 10-22 20s-2 20 4 29c17 23 32 48 44 73 23 45 44 103 44 158 0 1 0 2 0 4 3 80 35 154 88 210l-151 54c-19 7-31 25-31 45s12 37 31 44l548 198c15 5 30 8 46 8s31-3 46-8l548-198c19-7 31-25 31-44s-12-38-31-45l-548-197c-15-6-30-8-46-8s-31 2-46 8z m-239 19l-27-259c2-1 4-4 8-7 11-10 32-22 62-34 59-23 145-40 242-40s183 17 242 40c31 12 51 24 63 34 3 4 6 6 7 8l-27 258 60 22 30-284c0-69-168-141-375-141s-375 72-375 141l30 284 60-22z m599-256a0 0 0 1 1-1 0 0 0 0 1 1 1 0z m-627 0a0 0 0 1 1 0 0 0 0 0 1 1 0 0z m-181-77c5 41 3 79-1 111-7-19-16-37-24-54-7-15-15-29-24-44l49-13z" horiz-adv-x="1250" />

<glyph glyph-name="grid-1" unicode="&#xe875;" d="M0 694c0 52 42 94 94 94h187c52 0 94-42 94-94v-188c0-51-42-93-94-93h-187c-52 0-94 42-94 93v188z m63 0v-188c0-17 14-31 31-31h187c17 0 32 14 32 31v188c0 17-15 31-32 31h-187c-17 0-31-14-31-31z m-63-500c0 52 42 94 94 94h187c52 0 94-42 94-94v-188c0-52-42-94-94-94h-187c-52 0-94 42-94 94v188z m63 0v-188c0-17 14-31 31-31h187c17 0 32 14 32 31v188c0 17-15 31-32 31h-187c-17 0-31-14-31-31z m718 594c52 0 94-42 94-94v-188c0-51-42-93-94-93h-187c-52 0-94 42-94 93v188c0 52 42 94 94 94h187z m0-63h-187c-17 0-31-14-31-31v-188c0-17 14-31 31-31h187c17 0 32 14 32 31v188c0 17-15 31-32 31z m-281-531c0 52 42 94 94 94h187c52 0 94-42 94-94v-188c0-52-42-94-94-94h-187c-52 0-94 42-94 94v188z m63 0v-188c0-17 14-31 31-31h187c17 0 32 14 32 31v188c0 17-15 31-32 31h-187c-17 0-31-14-31-31z" horiz-adv-x="875" />

<glyph glyph-name="circle-heart" unicode="&#xe876;" d="M465 512l35-35 35 35c57 58 150 58 207 0 58-58 58-153 0-209l-198-203c-12-13-28-19-46-19-14 0-30 6-42 19l-198 203c-58 56-58 151 0 209 57 58 150 58 207 0h0z m-22-22c-45 46-118 46-163 0-46-46-46-121 0-167l198-200c6-8 14-10 22-10 6 0 14 2 22 10l198 200c44 46 44 121 0 167-45 46-118 46-163 0l-57-58-57 58z m557-140c0-276-224-500-500-500-276 0-500 224-500 500 0 276 224 500 500 500 276 0 500-224 500-500z m-500 469c-259 0-469-210-469-469 0-259 210-469 469-469 259 0 469 210 469 469 0 259-210 469-469 469z" horiz-adv-x="1000" />

<glyph glyph-name="filter" unicode="&#xe877;" d="M0 706c0 45 37 82 81 82h838c45 0 81-37 81-82 0-19-6-37-18-51l-326-400v-279c0-35-28-64-63-64-14 0-28 5-39 16l-181 142c-18 14-29 37-29 61v124l-326 400c-11 14-18 32-18 51v0z m107-12l320-392c7-9 11-19 11-30v-134l125-99v233c0 11 3 21 10 30l320 392h-786z" horiz-adv-x="1000" />

<glyph glyph-name="calendar-lines-pen-1" unicode="&#xe878;" d="M250 725h375v94c0 17 14 31 31 31 17 0 32-14 32-31v-94h62c69 0 125-56 125-125v-125h-812v-500c0-35 28-63 62-63h380l-2-8c-5-18-4-37 3-54h-381c-69 0-125 56-125 125v625c0 69 56 125 125 125h63v94c0 17 14 31 31 31 17 0 31-14 31-31v-94z m-187-125v-62h750v62c0 35-28 63-63 63h-625c-34 0-62-28-62-63z m406-437c17 0 31-15 31-32 0-17-14-31-31-31h-250c-17 0-31 14-31 31 0 17 14 32 31 32h250z m-281 156c0 17 14 31 31 31h437c17 0 32-14 32-31 0-17-15-31-32-31h-437c-17 0-31 14-31 31z m737 60c37 36 96 36 132 0l34-34c37-37 37-96 0-133l-300-300c-12-12-27-21-43-23l-147-38c-10-3-21 0-29 8-8 8-11 19-8 29l36 147c4 16 13 31 25 43l300 301z m88-45c-12 13-32 13-44 0l-48-48 78-78 48 50c12 11 12 30 0 42l-34 34z m-352-314l-26-96 97 24c6 1 11 4 15 8l208 208-79 78-207-208c-4-4-7-9-8-14h0z" horiz-adv-x="1125" />

<glyph glyph-name="quote" unicode="&#xea59;" d="M232 387v-81h201v-433h-433v433h0v81c0 163 47 285 140 361 64 52 145 79 241 79v-232c-52 0-149 0-149-208z m716 208v232c-96 0-177-27-241-79-93-76-140-198-140-361v-81h0v-433h433v433h-201v81c0 208 97 208 149 208z" horiz-adv-x="1000" />

<glyph glyph-name="location-dot-1" unicode="&#xea5a;" d="M329-125c-102 125-329 429-329 600 0 207 168 375 375 375 207 0 375-168 375-375 0-171-228-475-329-600-24-30-68-30-92 0h0z m46 475c69 0 125 56 125 125 0 69-56 125-125 125-69 0-125-56-125-125 0-69 56-125 125-125z" horiz-adv-x="750" />

<glyph glyph-name="envelope-1" unicode="&#xea5b;" d="M906 725c52 0 94-42 94-94 0-29-14-57-37-75l-425-318c-23-17-53-17-75 0l-425 318c-24 18-38 46-38 75 0 52 42 94 94 94h812z m-481-537c45-34 106-34 150 0l425 318v-406c0-69-56-125-125-125h-750c-69 0-125 56-125 125v406l425-318z" horiz-adv-x="1000" />

<glyph glyph-name="phone-flip-1" unicode="&#xea5c;" d="M37 164l212 91c25 11 54 3 71-18l86-105c135 67 245 177 312 312l-105 86c-21 17-28 46-18 71l91 212c12 27 41 42 70 35l197-45c28-6 47-31 47-60 0-492-401-893-894-893-28 0-53 19-59 47l-45 197c-7 29 8 58 35 70z" horiz-adv-x="1000" />

<glyph glyph-name="icon-check" unicode="&#xea5d;" d="M474 837c66 0 126-39 155-96 61 20 130 5 180-43 48-48 61-118 42-179 58-30 96-89 96-156 0-68-38-127-96-157 21-61 6-130-42-178-50-48-119-63-180-44-29-58-89-95-155-95-69 0-128 37-158 95-61-19-129-4-179 44-48 48-61 117-43 178-57 30-94 89-94 157 0 67 37 126 94 156-20 61-5 131 43 179 50 48 118 63 179 43 30 57 89 96 158 96z m177-416c19 16 19 44 0 62-16 17-44 17-61 0l-175-177-74 74c-17 17-45 17-62 0-18-19-18-46 0-63l104-104c17-18 44-18 61 0l207 208z" horiz-adv-x="947" />

<glyph glyph-name="phone-office" unicode="&#xea5e;" d="M688 225h-63c-34 0-62-28-62-62v-63c0-34 28-62 62-62h63c34 0 62 28 62 62v63c0 34-28 62-62 62z m0-125h-63v63h63v-63z m0 375h-63c-34 0-62-28-62-62v-63c0-34 28-62 62-62h63c34 0 62 28 62 62v63c0 34-28 62-62 62z m0-125h-63v63h63v-63z m250-125h-63c-34 0-62-28-62-62v-63c0-34 28-62 62-62h63c34 0 62 28 62 62v63c0 34-28 62-62 62z m0-125h-63v63h63v-63z m0 375h-63c-34 0-62-28-62-62v-63c0-34 28-62 62-62h63c34 0 62 28 62 62v63c0 34-28 62-62 62z m0-125h-63v63h63v-63z m62 438h-537c-13 36-47 62-88 62h-125c-41 0-75-26-88-62h-37c-69 0-125-56-125-125v-688c0-69 56-125 125-125h875c69 0 125 56 125 125v688c0 69-56 125-125 125z m-375-63h313v-125h-313v125z m-406 31c0 18 14 32 31 32h125c17 0 31-14 31-32v-656c0-17-14-31-31-31h-125c-17 0-31 14-31 31v656z m844-781c0-34-29-63-63-63h-875c-34 0-62 29-62 63v688c0 34 28 62 62 62h31v-625c0-52 42-94 94-94h125c52 0 94 42 94 94v625h94v-125c0-34 28-62 62-62h313c34 0 62 28 62 62v125c34 0 63-28 63-62v-688z" horiz-adv-x="1125" />

<glyph glyph-name="plus-regular" unicode="&#xea5f;" d="M844 350c0-26-21-47-47-47h-313v-312c0-26-21-47-46-47s-47 21-47 47v312h-313c-26 0-47 21-47 47 0 26 21 47 47 47h313v312c0 26 21 47 47 47s46-21 46-47v-312h313c26 0 47-21 47-47z" horiz-adv-x="875" />

<glyph glyph-name="minus-regular" unicode="&#xea60;" d="M844 350c0-26-21-47-47-47h-719c-26 0-47 21-47 47 0 26 21 47 47 47h719c26 0 47-21 47-47z" horiz-adv-x="875" />

<glyph glyph-name="arrow-right-regular" unicode="&#xea61;" d="M517 712l344-328c9-9 14-21 14-34s-5-25-14-34l-344-328c-19-18-49-17-66 1-18 19-18 49 1 67l259 247h-664c-26 0-47 21-47 47s21 47 47 47h664l-259 247c-19 18-19 48-2 66 18 19 46 20 67 2z" horiz-adv-x="875" />

<glyph glyph-name="map-location-dot" unicode="&#xea62;" d="M516 631c0 26 21 47 47 47 26 0 46-21 46-47 0-26-20-47-46-47-26 0-47 21-47 47z m18-389c-63 77-206 267-206 374 0 129 105 234 235 234 129 0 234-105 234-234 0-107-143-297-206-374-15-20-42-20-57 0v0z m182 307c13 30 18 52 18 67 0 95-77 172-171 172-95 0-172-77-172-172 0-15 5-37 18-67 13-32 31-65 52-99 33-54 72-107 102-145 29 38 68 91 102 145 20 34 38 67 51 99v0z m77-134c-2-1-3-1-5-2 16 28 31 56 43 84l230 92c31 13 64-10 64-43v-529c0-19-12-37-29-44l-303-121c-7-2-14-3-20-1l-427 122-282-112c-30-13-64 10-64 43v529c0 19 12 37 30 44l240 96c4-20 11-41 18-60l-225-90v-496l250 100v231c0 15 14 31 31 31 17 0 31-16 31-31v-228l375-107v335c0 15 14 31 31 31 17 0 32-16 32-31v-331l250 100v496l-270-108z" horiz-adv-x="1125" />

<glyph glyph-name="headset-1" unicode="&#xea63;" d="M373 413c0 34-28 62-62 62l-63 0c-69 0-125-56-125-123l2-126c0-69 56-125 125-125h62c35 0 63 28 63 62l-2 250z m-62-250h-63c-34 0-62 28-62 63v124c0 34 28 63 62 63l63 0 0-250z m437-62c69 0 125 56 125 125l0 124c0 69-56 123-125 123l-60 0c-35 0-63-28-63-62l0-249c0-35 28-63 63-63h60z m-62 312l61 0c34 0 62-29 62-63v-124c0-35-28-63-62-63h-63l2 250z m-139 435c-299 28-539-211-547-498l0-31c0-17 14-31 31-31 17 0 31 14 32 31l0 31c6 249 215 460 478 436 227-21 397-220 397-448v-330c0-52-42-94-94-94h-162c8 21 9 46-5 72-18 34-55 53-93 53l-112-1c-45 0-87-31-95-76-12-60 34-112 90-112l373 0c87 0 157 70 157 155v332c3 260-191 487-450 511z m45-936h-125c-17 0-31 14-31 32s14 31 31 31h125c17 0 31-14 31-31s-12-32-31-32z" horiz-adv-x="1000" />

<glyph glyph-name="envelope-open-text" unicode="&#xea64;" d="M969 475c-17 0-31-14-31-31v-500c0-18-14-32-32-32h-812c-17 0-31 15-31 32v500c0 17-14 31-32 31s-31-14-31-31v-500c0-52 42-94 94-94h812c52 0 94 42 94 92v502c0 17-14 31-31 31z m-842-165c0-2 1-4 2-5 1-2 2-3 3-5 1-2 3-3 4-5 1 0 1-1 2-1l259-191c30-21 66-32 103-32s73 11 103 34l259 190c1 1 1 2 2 2 2 1 3 3 4 5 1 1 3 3 3 5 1 1 2 3 2 5 1 2 1 4 2 6 0-1 0 0 0 1v437c0 52-42 94-94 94h-562c-52 0-94-42-94-94v-437c0-1 0-2 1-2 0-3 0-5 1-7z m61 446c0 18 14 32 31 32h562c17 0 32-14 32-32v-421l-247-182c-39-28-93-28-132 0l-246 182v421z m500-373c0 17-14 31-32 31h-312c-17 0-31-14-31-31 0-17 14-29 31-29h312c17-2 32 10 32 29z m-344 156h312c18 0 32 14 32 30 0 17-14 29-32 29h-312c-17 0-31-14-31-29 0-17 14-30 31-30z" horiz-adv-x="1000" />

<glyph glyph-name="arrow-up-right" unicode="&#xea65;" d="M625 616v-469c0-26-21-47-47-47s-47 21-47 47v356l-451-452c-9-9-21-13-33-13s-24 4-33 13c-19 19-19 48 0 67l451 451h-356c-25 0-46 21-46 47s21 47 46 47h469c26 0 47-22 47-47z" horiz-adv-x="625" />

<glyph glyph-name="share-nodes" unicode="&#xea66;" d="M875 600c0-103-84-187-187-187-57 0-107 25-142 64l-175-88c3-12 2-25 2-37 0-15 1-29-2-41l175-86c35 38 85 64 142 64 103 0 187-84 187-189 0-104-84-188-187-188-106 0-188 84-188 188 0 14 1 27 4 39l-175 88c-34-39-85-64-141-64-104 0-188 84-188 189 0 103 84 187 188 187 56 0 107-26 141-64l175 86c-3 12-4 26-4 39 0 104 82 188 188 188 103 0 187-84 187-188h0z m-689-344c53 0 94 42 94 94 0 52-41 94-94 94-50 0-94-42-94-94 0-52 44-94 94-94z m502 438c-52 0-94-42-94-94 0-52 42-94 94-94 51 0 93 42 93 94 0 52-42 94-93 94z m0-688c51 0 93 42 93 94 0 52-42 94-93 94-52 0-94-42-94-94 0-52 42-94 94-94z" horiz-adv-x="875" />

<glyph glyph-name="xmark-1" unicode="&#xea67;" d="M616 47c-12-12-32-12-44 0l-259 259-260-259c-12-12-32-12-44 0-12 12-12 32 0 44l259 259-259 259c-12 12-12 32 0 44 12 13 32 13 44 0l260-259 259 259c12 13 32 13 44 0 12-12 12-32 0-44l-259-259 259-259c12-12 12-32 0-44z" horiz-adv-x="625" />
</font>
</defs>
</svg>
