<svg width="44" height="28" viewBox="0 0 44 28" fill="none" xmlns="http://www.w3.org/2000/svg">
<path d="M28.2131 19.5628H0.425781V18.9957H28.2131C29.1346 18.9957 29.1346 18.6413 29.1346 18.4286V18.0742H29.7726V18.4286C29.7726 18.9249 29.4891 19.5628 28.2131 19.5628Z" fill="#FF6D1C"/>
<path d="M23.321 15.0273H2.83496V15.6653H23.321V15.0273Z" fill="#FF6D1C"/>
<path d="M31.8279 27.5025C31.7571 27.5025 31.6862 27.5025 31.6862 27.5025C31.5444 27.4316 31.4026 27.2899 31.4026 27.0772V23.9582C31.4026 22.7532 30.9064 21.5481 29.9849 20.6975C29.0634 19.8468 27.9292 19.4215 26.6533 19.4924L2.76465 19.5633V18.9253L26.6533 18.8544C28.071 18.7835 29.4178 19.2797 30.4102 20.2721C31.4026 21.2645 31.9697 22.5405 31.9697 23.9582V26.6519L41.1849 17.4367C42.1773 16.4443 42.7444 15.1683 42.7444 13.7506C42.7444 11.624 41.4685 9.781 39.5545 8.93037L39.7672 8.36328C41.9647 9.2848 43.3115 11.4114 43.3115 13.7506C43.3115 15.3101 42.6735 16.7987 41.6102 17.862L32.1115 27.3608C32.0406 27.5025 31.9697 27.5025 31.8279 27.5025Z" fill="#FF6D1C"/>
<path d="M30.4806 28.0009H0.779297V27.3629H30.4806C31.4021 27.3629 31.4021 27.0085 31.4021 26.7958V26.4414H32.0401V26.7958C32.0401 27.3629 31.7565 28.0009 30.4806 28.0009Z" fill="#FF6D1C"/>
<path d="M25.8736 23.3906H3.47363V24.0286H25.8736V23.3906Z" fill="#FF6D1C"/>
<path d="M0.0708861 10.562L10.9165 1.13418C11.6253 0.425317 12.6886 0 13.681 0H35.0177C38.0658 0 40.5468 2.48101 40.5468 5.52912C40.5468 7.01772 39.9798 8.43545 38.9165 9.42785L29.4177 18.9266C29.3468 18.9975 29.2051 18.9266 29.2051 18.8557V15.7367C29.2051 12.9722 26.9367 10.8456 24.1722 10.9165L0.283544 11.0582C0 11.0582 -0.0708861 10.7038 0.0708861 10.562Z" fill="#FF6D1C"/>
</svg>
